<svg xmlns="http://www.w3.org/2000/svg" xmlns:xlink="http://www.w3.org/1999/xlink" width="1980" zoomAndPan="magnify" viewBox="0 0 1485 374.999991" height="500" preserveAspectRatio="xMidYMid meet" version="1.0"><defs><clipPath id="id1"><path d="M 486.609375 128.15625 L 939.609375 128.15625 L 939.609375 278.15625 L 486.609375 278.15625 Z M 486.609375 128.15625 " clip-rule="nonzero"/></clipPath><clipPath id="id2"><path d="M 743 62.328125 L 1253 62.328125 L 1253 270.078125 L 743 270.078125 Z M 743 62.328125 " clip-rule="nonzero"/></clipPath><clipPath id="id3"><path d="M 1089 0 L 1485 0 L 1485 207.75 L 1089 207.75 Z M 1089 0 " clip-rule="nonzero"/></clipPath><clipPath id="id4"><path d="M 243.71875 82.28125 L 471 82.28125 L 471 210 L 243.71875 210 Z M 243.71875 82.28125 " clip-rule="nonzero"/></clipPath><clipPath id="id5"><path d="M 437.207031 138.226562 L 626.085938 138.226562 L 626.085938 232.28125 L 437.207031 232.28125 Z M 437.207031 138.226562 " clip-rule="nonzero"/></clipPath><clipPath id="id6"><path d="M 0 71 L 197.03125 71 L 197.03125 261.445312 L 0 261.445312 Z M 0 71 " clip-rule="nonzero"/></clipPath></defs><path fill="#23243d" d="M 251.132812 51.582031 C 242.355469 26.996094 212.863281 10.839844 179.15625 26.644531 C 179.15625 26.644531 167.222656 -0.046875 135.269531 1.007812 C 103.320312 2.058594 95.949219 32.265625 95.949219 32.265625 C 95.949219 32.265625 54.167969 9.085938 35.210938 56.5 C 35.210938 56.5 9.230469 48.773438 -4.8125 71.601562 C -18.859375 94.433594 14.847656 116.207031 38.019531 99.703125 C 38.019531 99.703125 40.828125 125.339844 80.148438 137.632812 C 119.472656 149.925781 152.472656 133.066406 161.253906 119.019531 C 161.253906 119.019531 178.804688 142.550781 220.9375 136.230469 C 263.066406 129.90625 262.015625 104.617188 262.015625 104.617188 C 262.015625 104.617188 293.261719 111.644531 304.496094 90.570312 C 315.730469 69.496094 302.308594 42.523438 283.082031 38.9375 C 262.367188 35.074219 251.132812 51.582031 251.132812 51.582031 Z M 251.132812 51.582031 " fill-opacity="1" fill-rule="nonzero"/><path fill="#1c1d32" d="M 368.71875 169.667969 C 337.613281 182.964844 301.324219 183.472656 269.726562 171.488281 C 260.292969 177.40625 250.613281 182.914062 240.246094 186.921875 C 225.511719 192.632812 209.082031 195.1875 193.800781 191.164062 C 181.125 187.820312 169.453125 179.378906 163.476562 167.898438 C 159.484375 171.667969 154.714844 174.597656 149.394531 175.796875 C 142.152344 177.421875 133.851562 175.367188 129.183594 169.597656 C 125.769531 165.386719 124.921875 159.179688 126.929688 154.269531 C 122.761719 153.335938 118.792969 151.589844 115.363281 149.023438 C 104.582031 140.964844 100.023438 125.542969 104.710938 112.933594 C 109.75 99.359375 123.796875 90.777344 138.046875 88.191406 C 151.4375 85.765625 165.15625 87.734375 178.617188 89.96875 C 184.230469 73.445312 196.902344 59.210938 213.277344 53.257812 C 231.917969 46.476562 254.785156 51.628906 267.410156 66.917969 C 276.261719 77.640625 278.996094 93.003906 275.136719 106.183594 C 281.695312 103.9375 289.027344 103.894531 295.476562 106.472656 C 301.539062 108.898438 306.554688 113.527344 309.800781 119.175781 C 313.039062 118.871094 316.304688 119.035156 319.488281 119.757812 C 327.929688 121.691406 335.566406 128.121094 337.53125 136.558594 C 338.242188 139.621094 338.054688 142.867188 337.132812 145.886719 C 346.199219 141.617188 356.472656 139.890625 366.410156 141.25 C 373.824219 142.253906 382.265625 146.410156 382.824219 153.867188 C 383.40625 161.398438 375.671875 166.691406 368.71875 169.667969 Z M 368.71875 169.667969 " fill-opacity="1" fill-rule="nonzero"/><path fill="#1c1d32" d="M 383.230469 149.882812 C 381.324219 145.695312 376.976562 143.074219 372.800781 141.582031 C 367.632812 139.738281 361.929688 139.394531 356.484375 139.75 C 350.460938 140.148438 344.554688 141.539062 338.976562 143.820312 C 340.160156 136.78125 337.519531 129.953125 332.164062 125.027344 C 326.335938 119.667969 318.5 117.46875 310.703125 117.964844 C 307.363281 112.515625 302.449219 107.988281 296.496094 105.550781 C 290.257812 102.996094 283.433594 102.8125 276.980469 104.46875 C 279.308594 94.707031 278.355469 84.300781 274.175781 75.136719 C 269.953125 65.886719 262.273438 58.640625 253.144531 54.273438 C 244.222656 50.003906 234.113281 48.429688 224.308594 49.53125 C 214.164062 50.671875 204.578125 54.992188 196.722656 61.453125 C 188.0625 68.578125 181.496094 78.105469 177.683594 88.621094 C 158.140625 85.4375 137.066406 83.246094 119.410156 94.066406 C 112.277344 98.4375 106.210938 104.882812 103.332031 112.816406 C 100.488281 120.640625 101.039062 129.363281 104.304688 136.976562 C 108.164062 145.980469 115.839844 152.511719 125.238281 155.054688 C 123.117188 161.839844 125.597656 169.382812 131.464844 173.535156 C 137.589844 177.863281 145.613281 178.4375 152.597656 176.039062 C 156.441406 174.722656 159.925781 172.550781 163.007812 169.921875 C 169.90625 181.839844 182.398438 189.957031 195.746094 192.851562 C 212.375 196.460938 229.730469 192.8125 245.105469 186.164062 C 253.714844 182.445312 261.859375 177.757812 269.804688 172.804688 C 294.613281 181.957031 322 183.710938 347.769531 177.699219 C 355.136719 175.980469 362.351562 173.617188 369.316406 170.65625 C 377.136719 167.269531 387.738281 159.78125 383.230469 149.882812 Z M 379.761719 160.171875 C 377.097656 164.238281 372.472656 166.792969 368.125 168.675781 C 341.46875 180.011719 311.128906 181.925781 283.152344 174.527344 C 279.710938 173.617188 276.308594 172.574219 272.957031 171.386719 C 272.152344 171.101562 271.355469 170.742188 270.542969 170.496094 C 269.648438 170.230469 269.15625 170.480469 268.390625 170.957031 C 266.789062 171.945312 265.1875 172.941406 263.574219 173.914062 C 257.015625 177.851562 250.261719 181.496094 243.214844 184.492188 C 229.480469 190.332031 214.113281 193.695312 199.210938 191.128906 C 184.949219 188.675781 171.59375 180.296875 164.75 167.320312 C 164.375 166.613281 163.109375 166.589844 162.578125 167.089844 C 156.128906 173.117188 147.460938 176.960938 138.625 174.308594 C 134.691406 173.125 131.070312 170.582031 129.066406 166.945312 C 127 163.199219 126.6875 158.550781 128.246094 154.574219 C 128.5 153.925781 128.085938 153.320312 127.425781 153.167969 C 118.953125 151.210938 111.976562 145.828125 107.949219 138.140625 C 104.359375 131.292969 103.261719 123.078125 105.277344 115.582031 C 109.65625 99.261719 126.871094 90.460938 142.523438 88.679688 C 154.414062 87.328125 166.402344 89.132812 178.117188 91.074219 C 178.75 91.183594 179.6875 90.972656 179.929688 90.277344 C 186.175781 72.101562 201.128906 56.320312 220.429688 52.429688 C 238.777344 48.734375 259.851562 55.925781 269.625 72.464844 C 275.488281 82.390625 277.011719 94.808594 273.828125 105.878906 C 273.472656 107.121094 274.773438 107.488281 275.738281 107.171875 C 282.175781 105.023438 289.433594 105.085938 295.671875 107.886719 C 301.136719 110.339844 305.53125 114.609375 308.535156 119.753906 C 308.746094 120.113281 309.253906 120.359375 309.667969 120.320312 C 316.949219 119.691406 324.183594 121.476562 329.71875 126.394531 C 335.164062 131.230469 337.910156 138.433594 335.832031 145.582031 C 335.496094 146.734375 336.777344 147.320312 337.738281 146.875 C 347.179688 142.480469 358.613281 140.414062 368.878906 142.910156 C 372.785156 143.863281 376.949219 145.699219 379.457031 148.976562 C 381.992188 152.296875 382.042969 156.691406 379.761719 160.171875 Z M 379.761719 160.171875 " fill-opacity="1" fill-rule="nonzero"/><g clip-path="url(#id1)"><path fill="#1c1d32" d="M 902.550781 203.902344 C 901.929688 203.902344 901.308594 203.902344 900.707031 203.957031 C 896.25 184.03125 878.449219 169.125 857.160156 169.125 C 835.871094 169.125 817.507812 184.484375 813.394531 204.890625 C 810.800781 204.269531 808.113281 203.921875 805.320312 203.921875 C 800.09375 203.921875 795.160156 205.128906 790.738281 207.226562 C 782.640625 191.773438 766.46875 181.234375 747.8125 181.234375 C 745.402344 181.234375 743.042969 181.417969 740.742188 181.746094 C 737.945312 151.734375 712.710938 128.261719 681.972656 128.261719 C 662.878906 128.261719 645.902344 137.339844 635.101562 151.40625 C 630.769531 150.128906 626.183594 149.433594 621.433594 149.433594 C 599.960938 149.433594 581.761719 163.40625 575.421875 182.769531 C 571.511719 181.746094 567.398438 181.199219 563.175781 181.199219 C 536.425781 181.199219 514.753906 202.878906 514.753906 229.605469 C 514.753906 232.855469 515.082031 236.035156 515.683594 239.121094 C 513.054688 237.878906 510.128906 237.183594 507.023438 237.183594 C 495.75 237.183594 486.59375 246.316406 486.59375 257.605469 C 486.59375 268.894531 495.730469 278.027344 507.023438 278.027344 L 902.550781 278.027344 C 923.039062 278.027344 939.628906 261.441406 939.628906 240.964844 C 939.628906 220.488281 923.039062 203.902344 902.550781 203.902344 Z M 902.550781 203.902344 " fill-opacity="1" fill-rule="nonzero"/></g><g clip-path="url(#id2)"><path fill="#1c1d32" d="M 780.867188 196.226562 C 786.917969 196.226562 792.628906 197.699219 797.667969 200.257812 C 803.378906 180.027344 821.960938 165.195312 844.007812 165.195312 C 847.9375 165.195312 851.761719 165.6875 855.433594 166.566406 C 861.246094 137.703125 886.757812 115.96875 917.332031 115.96875 C 928.496094 115.96875 938.988281 118.863281 948.085938 123.953125 C 962.5625 87.855469 997.890625 62.328125 1039.191406 62.328125 C 1093.414062 62.328125 1137.378906 106.28125 1137.378906 160.492188 C 1137.378906 160.878906 1137.378906 161.265625 1137.351562 161.65625 C 1140.710938 160.929688 1144.203125 160.542969 1147.792969 160.542969 C 1170.820312 160.542969 1190.230469 176.046875 1196.203125 197.160156 C 1201.476562 194.472656 1207.417969 192.945312 1213.75 192.945312 C 1235.046875 192.945312 1252.3125 210.207031 1252.3125 231.5 C 1252.3125 252.792969 1235.046875 270.050781 1213.75 270.050781 L 780.867188 270.050781 C 760.476562 270.050781 743.933594 253.515625 743.933594 233.128906 C 743.933594 212.738281 760.476562 196.203125 780.867188 196.203125 Z M 780.867188 196.226562 " fill-opacity="1" fill-rule="nonzero"/></g><g clip-path="url(#id3)"><path fill="#23243d" d="M 1561.425781 133.902344 C 1555.378906 133.902344 1549.667969 135.375 1544.628906 137.929688 C 1538.917969 117.699219 1520.332031 102.867188 1498.289062 102.867188 C 1494.359375 102.867188 1490.535156 103.359375 1486.863281 104.238281 C 1481.046875 75.375 1455.539062 53.644531 1424.964844 53.644531 C 1413.800781 53.644531 1403.304688 56.535156 1394.207031 61.628906 C 1379.734375 25.53125 1344.40625 0 1303.105469 0 C 1248.878906 0 1204.917969 43.953125 1204.917969 98.164062 C 1204.917969 98.550781 1204.917969 98.941406 1204.941406 99.328125 C 1201.582031 98.605469 1198.09375 98.214844 1194.5 98.214844 C 1171.472656 98.214844 1152.0625 113.71875 1146.09375 134.832031 C 1140.820312 132.144531 1134.875 130.617188 1128.542969 130.617188 C 1107.25 130.617188 1089.984375 147.878906 1089.984375 169.171875 C 1089.984375 190.464844 1107.25 207.722656 1128.542969 207.722656 L 1561.425781 207.722656 C 1581.820312 207.722656 1598.359375 191.1875 1598.359375 170.800781 C 1598.359375 150.410156 1581.820312 133.875 1561.425781 133.875 Z M 1561.425781 133.902344 " fill-opacity="1" fill-rule="nonzero"/></g><g clip-path="url(#id4)"><path fill="#ffffff" d="M 470.4375 177.351562 C 470.4375 164.058594 462.503906 152.617188 451.109375 147.496094 C 451.882812 143.859375 452.292969 140.09375 452.292969 136.230469 C 452.292969 106.433594 428.121094 82.28125 398.300781 82.28125 C 377.652344 82.28125 359.710938 93.867188 350.628906 110.878906 C 344.65625 104.570312 336.207031 100.632812 326.828125 100.632812 C 311.511719 100.632812 298.648438 111.140625 295.070312 125.335938 C 292.351562 124.796875 289.542969 124.511719 286.664062 124.511719 C 263.015625 124.511719 243.847656 143.664062 243.847656 167.289062 C 243.847656 188.242188 258.925781 205.679688 278.832031 209.351562 L 444.519531 209.351562 C 459.324219 206.210938 470.4375 193.078125 470.4375 177.351562 " fill-opacity="1" fill-rule="nonzero"/></g><g clip-path="url(#id5)"><path fill="#ffffff" d="M 626.085938 208.042969 C 626.085938 194.722656 615.664062 183.84375 602.527344 183.082031 C 602.417969 166.929688 589.28125 153.867188 573.085938 153.867188 C 565.878906 153.867188 559.277344 156.457031 554.160156 160.75 C 547.269531 147.621094 533.5 138.667969 517.632812 138.667969 C 496.242188 138.667969 478.65625 154.949219 476.609375 175.789062 C 473.625 174.765625 470.417969 174.210938 467.085938 174.210938 C 450.824219 174.210938 437.644531 187.382812 437.644531 203.628906 C 437.644531 217.621094 447.421875 229.332031 460.519531 232.3125 L 607.097656 232.3125 C 618.003906 229.613281 626.085938 219.773438 626.085938 208.042969 " fill-opacity="1" fill-rule="nonzero"/></g><path fill="#5e6b9b" d="M -19.609375 116.964844 C -15.308594 116.964844 -11.136719 117.472656 -7.113281 118.375 C -1.875 92.289062 21.175781 72.632812 48.816406 72.632812 C 76.804688 72.632812 100.050781 92.792969 104.902344 119.367188 C 105.226562 119.359375 105.546875 119.324219 105.878906 119.324219 C 128.335938 119.324219 147.109375 134.875 152.128906 155.777344 C 153.367188 155.664062 154.617188 155.585938 155.886719 155.585938 C 177.75 155.585938 195.476562 173.308594 195.476562 195.160156 C 195.476562 217.011719 177.75 234.726562 155.886719 234.726562 C 147.140625 234.726562 139.089844 231.859375 132.535156 227.058594 C 127.273438 242.746094 112.480469 254.070312 95.015625 254.070312 C 81.394531 254.070312 69.382812 247.191406 62.257812 236.722656 C 55.453125 250.324219 41.425781 259.683594 25.175781 259.683594 C 6.632812 259.683594 -9.058594 247.523438 -14.367188 230.746094 C -16.09375 230.902344 -17.835938 231.011719 -19.609375 231.011719 C -51.117188 231.011719 -76.664062 205.484375 -76.664062 173.988281 C -76.664062 142.492188 -51.117188 116.964844 -19.609375 116.964844 " fill-opacity="1" fill-rule="nonzero"/><g clip-path="url(#id6)"><path fill="#5e6b9b" d="M -19.609375 116.964844 L -19.609375 118.527344 C -15.429688 118.527344 -11.378906 119.019531 -7.453125 119.898438 C -7.042969 119.992188 -6.613281 119.914062 -6.261719 119.6875 C -5.90625 119.453125 -5.664062 119.097656 -5.578125 118.683594 C -3.035156 106 3.84375 94.875 13.449219 86.925781 C 23.050781 78.972656 35.371094 74.195312 48.816406 74.191406 C 62.433594 74.195312 74.878906 79.097656 84.527344 87.230469 C 94.171875 95.363281 101.003906 106.726562 103.363281 119.648438 C 103.5 120.398438 104.15625 120.9375 104.921875 120.929688 C 105.359375 120.917969 105.671875 120.882812 105.878906 120.886719 C 116.738281 120.886719 126.699219 124.640625 134.566406 130.929688 C 142.429688 137.21875 148.183594 146.039062 150.609375 156.144531 C 150.789062 156.898438 151.5 157.410156 152.277344 157.335938 C 153.480469 157.222656 154.679688 157.148438 155.886719 157.148438 C 166.394531 157.152344 175.886719 161.402344 182.773438 168.285156 C 189.660156 175.167969 193.910156 184.660156 193.910156 195.160156 C 193.910156 205.660156 189.660156 215.152344 182.773438 222.03125 C 175.886719 228.910156 166.394531 233.160156 155.886719 233.164062 C 147.484375 233.160156 139.761719 230.414062 133.460938 225.800781 C 133.058594 225.507812 132.535156 225.421875 132.0625 225.574219 C 131.589844 225.722656 131.210938 226.09375 131.050781 226.566406 C 128.53125 234.097656 123.710938 240.585938 117.429688 245.1875 C 111.144531 249.792969 103.40625 252.507812 95.015625 252.507812 C 81.929688 252.507812 70.398438 245.90625 63.550781 235.84375 C 63.238281 235.386719 62.703125 235.125 62.152344 235.164062 C 61.601562 235.199219 61.105469 235.527344 60.859375 236.023438 C 54.308594 249.113281 40.808594 258.121094 25.175781 258.121094 C 16.25 258.121094 8.023438 255.195312 1.378906 250.253906 C -5.269531 245.308594 -10.324219 238.34375 -12.875 230.273438 C -13.097656 229.578125 -13.777344 229.125 -14.507812 229.191406 C -16.203125 229.347656 -17.898438 229.449219 -19.609375 229.449219 C -34.933594 229.449219 -48.796875 223.242188 -58.84375 213.203125 C -68.890625 203.164062 -75.097656 189.304688 -75.101562 173.988281 C -75.097656 158.664062 -68.890625 144.8125 -58.84375 134.769531 C -48.796875 124.730469 -34.9375 118.527344 -19.609375 118.527344 L -19.609375 115.402344 C -51.980469 115.402344 -78.222656 141.628906 -78.226562 173.988281 C -78.222656 206.347656 -51.980469 232.574219 -19.609375 232.574219 C -17.777344 232.574219 -15.984375 232.460938 -14.226562 232.304688 L -14.367188 230.746094 L -15.859375 231.21875 C -13.101562 239.925781 -7.652344 247.429688 -0.492188 252.761719 C 6.671875 258.085938 15.5625 261.246094 25.175781 261.246094 C 42.039062 261.242188 56.601562 251.53125 63.65625 237.421875 L 62.257812 236.722656 L 60.964844 237.601562 C 68.363281 248.484375 80.859375 255.632812 95.015625 255.632812 C 104.089844 255.632812 112.480469 252.6875 119.277344 247.707031 C 126.070312 242.730469 131.28125 235.710938 134.015625 227.554688 L 132.535156 227.058594 L 131.609375 228.320312 C 138.414062 233.300781 146.796875 236.289062 155.886719 236.289062 C 178.613281 236.285156 197.039062 217.871094 197.039062 195.160156 C 197.039062 172.445312 178.617188 154.027344 155.886719 154.023438 C 154.558594 154.023438 153.257812 154.105469 151.984375 154.222656 L 152.128906 155.777344 L 153.652344 155.417969 C 151.054688 144.617188 144.914062 135.203125 136.519531 128.492188 C 128.125 121.777344 117.46875 117.757812 105.878906 117.761719 C 105.421875 117.761719 105.09375 117.804688 104.875 117.804688 L 104.902344 119.367188 L 106.4375 119.085938 C 103.945312 105.433594 96.726562 93.429688 86.542969 84.839844 C 76.359375 76.25 63.191406 71.070312 48.816406 71.070312 C 34.621094 71.070312 21.59375 76.121094 11.453125 84.515625 C 1.3125 92.914062 -5.953125 104.664062 -8.644531 118.066406 L -7.113281 118.375 L -6.769531 116.851562 C -10.898438 115.925781 -15.183594 115.402344 -19.609375 115.402344 L -19.609375 116.964844 " fill-opacity="1" fill-rule="nonzero"/></g><path fill="#5e6b9b" d="M 330.109375 208.867188 C 321.332031 184.28125 291.839844 168.125 258.136719 183.929688 C 258.136719 183.929688 246.199219 157.234375 214.25 158.289062 C 182.300781 159.34375 174.929688 189.546875 174.929688 189.546875 C 174.929688 189.546875 133.148438 166.367188 114.1875 213.78125 C 114.1875 213.78125 88.207031 206.054688 74.164062 228.886719 C 60.121094 251.714844 93.824219 273.492188 116.996094 256.984375 C 116.996094 256.984375 119.804688 282.625 159.128906 294.917969 C 198.449219 307.207031 231.453125 290.351562 240.230469 276.300781 C 240.230469 276.300781 257.785156 299.832031 299.914062 293.511719 C 342.046875 287.1875 340.996094 261.902344 340.996094 261.902344 C 340.996094 261.902344 372.242188 268.925781 383.476562 247.851562 C 394.710938 226.777344 381.289062 199.808594 362.058594 196.222656 C 341.34375 192.359375 330.109375 208.867188 330.109375 208.867188 Z M 330.109375 208.867188 " fill-opacity="1" fill-rule="nonzero"/><path fill="#5e6b9b" d="M 560.453125 228.800781 C 551.675781 204.214844 522.183594 188.058594 488.476562 203.863281 C 488.476562 203.863281 476.542969 177.171875 444.589844 178.222656 C 412.640625 179.277344 405.269531 209.484375 405.269531 209.484375 C 405.269531 209.484375 363.488281 186.300781 344.53125 233.71875 C 344.53125 233.71875 318.550781 225.992188 304.507812 248.820312 C 290.460938 271.652344 324.167969 293.425781 347.339844 276.917969 C 347.339844 276.917969 350.148438 302.558594 389.46875 314.851562 C 428.792969 327.144531 461.792969 310.285156 470.574219 296.238281 C 470.574219 296.238281 488.125 319.769531 530.257812 313.445312 C 572.390625 307.125 571.335938 281.835938 571.335938 281.835938 C 571.335938 281.835938 602.582031 288.859375 613.816406 267.785156 C 625.050781 246.714844 611.628906 219.742188 592.402344 216.15625 C 571.6875 212.292969 560.453125 228.800781 560.453125 228.800781 Z M 560.453125 228.800781 " fill-opacity="1" fill-rule="nonzero"/><path fill="#5e6b9b" d="M 1456.335938 208.867188 C 1447.558594 184.28125 1418.066406 168.125 1384.359375 183.929688 C 1384.359375 183.929688 1372.425781 157.234375 1340.476562 158.289062 C 1308.523438 159.34375 1301.152344 189.546875 1301.152344 189.546875 C 1301.152344 189.546875 1259.371094 166.367188 1240.414062 213.78125 C 1240.414062 213.78125 1214.433594 206.054688 1200.390625 228.886719 C 1186.34375 251.714844 1220.050781 273.492188 1243.222656 256.984375 C 1243.222656 256.984375 1246.03125 282.625 1285.351562 294.917969 C 1324.675781 307.207031 1357.675781 290.351562 1366.457031 276.300781 C 1366.457031 276.300781 1384.011719 299.832031 1426.140625 293.511719 C 1468.273438 287.1875 1467.21875 261.902344 1467.21875 261.902344 C 1467.21875 261.902344 1498.464844 268.925781 1509.699219 247.851562 C 1520.933594 226.777344 1507.511719 199.808594 1488.285156 196.222656 C 1467.570312 192.359375 1456.335938 208.867188 1456.335938 208.867188 Z M 1456.335938 208.867188 " fill-opacity="1" fill-rule="nonzero"/><path fill="#1c1d32" d="M 983.730469 238.140625 C 974.953125 213.554688 945.460938 197.398438 911.757812 213.203125 C 911.757812 213.203125 899.820312 186.507812 867.871094 187.5625 C 835.921875 188.617188 828.546875 218.824219 828.546875 218.824219 C 828.546875 218.824219 786.765625 195.640625 767.808594 243.058594 C 767.808594 243.058594 741.828125 235.332031 727.785156 258.160156 C 713.742188 280.988281 747.445312 302.765625 770.617188 286.257812 C 770.617188 286.257812 773.425781 311.898438 812.75 324.191406 C 852.070312 336.484375 885.074219 319.625 893.851562 305.574219 C 893.851562 305.574219 911.40625 329.109375 953.535156 322.785156 C 995.667969 316.464844 994.613281 291.175781 994.613281 291.175781 C 994.613281 291.175781 1025.859375 298.199219 1037.097656 277.125 C 1048.332031 256.050781 1034.910156 229.082031 1015.679688 225.496094 C 994.964844 221.632812 983.730469 238.140625 983.730469 238.140625 Z M 983.730469 238.140625 " fill-opacity="1" fill-rule="nonzero"/><path fill="#5e6b9b" d="M 1278.828125 217.835938 C 1270.050781 193.25 1240.558594 177.09375 1206.855469 192.898438 C 1206.855469 192.898438 1194.917969 166.203125 1162.96875 167.257812 C 1131.019531 168.3125 1123.648438 198.519531 1123.648438 198.519531 C 1123.648438 198.519531 1081.867188 175.335938 1062.90625 222.753906 C 1062.90625 222.753906 1036.925781 215.027344 1022.882812 237.855469 C 1008.839844 260.683594 1042.542969 282.460938 1065.71875 265.953125 C 1065.71875 265.953125 1068.523438 291.59375 1107.847656 303.886719 C 1147.171875 316.179688 1180.171875 299.320312 1188.949219 285.269531 C 1188.949219 285.269531 1206.503906 308.800781 1248.636719 302.480469 C 1290.765625 296.15625 1289.714844 270.871094 1289.714844 270.871094 C 1289.714844 270.871094 1320.960938 277.894531 1332.195312 256.820312 C 1343.429688 235.746094 1330.007812 208.777344 1310.777344 205.191406 C 1290.066406 201.328125 1278.828125 217.835938 1278.828125 217.835938 Z M 1278.828125 217.835938 " fill-opacity="1" fill-rule="nonzero"/><path fill="#1c1d32" d="M 776.945312 259.429688 C 768.167969 234.84375 738.675781 218.6875 704.972656 234.492188 C 704.972656 234.492188 693.035156 207.800781 661.085938 208.855469 C 629.136719 209.90625 621.761719 240.113281 621.761719 240.113281 C 621.761719 240.113281 579.984375 216.933594 561.023438 264.347656 C 561.023438 264.347656 535.042969 256.621094 521 279.449219 C 506.957031 302.28125 540.660156 324.054688 563.832031 307.550781 C 563.832031 307.550781 566.640625 333.1875 605.964844 345.480469 C 645.285156 357.773438 678.289062 340.914062 687.066406 326.867188 C 687.066406 326.867188 704.621094 350.398438 746.75 344.078125 C 788.882812 337.753906 787.828125 312.464844 787.828125 312.464844 C 787.828125 312.464844 819.078125 319.492188 830.3125 298.417969 C 841.546875 277.34375 828.125 250.371094 808.894531 246.785156 C 788.179688 242.921875 776.945312 259.429688 776.945312 259.429688 Z M 776.945312 259.429688 " fill-opacity="1" fill-rule="nonzero"/></svg>