<svg xmlns="http://www.w3.org/2000/svg" xmlns:xlink="http://www.w3.org/1999/xlink" width="1980" zoomAndPan="magnify" viewBox="0 0 1485 374.999991" height="500" preserveAspectRatio="xMidYMid meet" version="1.0"><defs><clipPath id="id1"><path d="M 0 180.519531 L 552.609375 180.519531 L 552.609375 366.519531 L 0 366.519531 Z M 0 180.519531 " clip-rule="nonzero"/></clipPath><clipPath id="id2"><path d="M 455.097656 231.582031 L 1010.847656 231.582031 L 1010.847656 375 L 455.097656 375 Z M 455.097656 231.582031 " clip-rule="nonzero"/></clipPath><clipPath id="id3"><path d="M 816.664062 255.519531 L 1372.414062 255.519531 L 1372.414062 375 L 816.664062 375 Z M 816.664062 255.519531 " clip-rule="nonzero"/></clipPath><clipPath id="id4"><path d="M 24.683594 150.582031 L 477.683594 150.582031 L 477.683594 300.582031 L 24.683594 300.582031 Z M 24.683594 150.582031 " clip-rule="nonzero"/></clipPath><clipPath id="id5"><path d="M 0 225 L 263.316406 225 L 263.316406 374.878906 L 0 374.878906 Z M 0 225 " clip-rule="nonzero"/></clipPath><clipPath id="id6"><path d="M 0 236.878906 L 133.566406 236.878906 L 133.566406 375 L 0 375 Z M 0 236.878906 " clip-rule="nonzero"/></clipPath><clipPath id="id7"><path d="M 0 300 L 343.824219 300 L 343.824219 375 L 0 375 Z M 0 300 " clip-rule="nonzero"/></clipPath><clipPath id="id8"><path d="M 4.949219 320.613281 L 520.949219 320.613281 L 520.949219 375 L 4.949219 375 Z M 4.949219 320.613281 " clip-rule="nonzero"/></clipPath><clipPath id="id9"><path d="M 118.617188 300.582031 L 674.363281 300.582031 L 674.363281 375 L 118.617188 375 Z M 118.617188 300.582031 " clip-rule="nonzero"/></clipPath><clipPath id="id10"><path d="M 531.910156 320.679688 L 1087.660156 320.679688 L 1087.660156 375 L 531.910156 375 Z M 531.910156 320.679688 " clip-rule="nonzero"/></clipPath><clipPath id="id11"><path d="M 0 275.78125 L 696.9375 275.78125 L 696.9375 375 L 0 375 Z M 0 275.78125 " clip-rule="nonzero"/></clipPath><clipPath id="id12"><path d="M 521.292969 287 L 1048.542969 287 L 1048.542969 375 L 521.292969 375 Z M 521.292969 287 " clip-rule="nonzero"/></clipPath><clipPath id="id13"><path d="M 996.933594 266.328125 L 1485 266.328125 L 1485 375 L 996.933594 375 Z M 996.933594 266.328125 " clip-rule="nonzero"/></clipPath></defs><g clip-path="url(#id1)"><path fill="#1c1d32" d="M 520.164062 301.644531 C 514.863281 301.644531 509.855469 302.9375 505.4375 305.179688 C 500.429688 287.445312 484.140625 274.449219 464.8125 274.449219 C 461.367188 274.449219 458.015625 274.878906 454.796875 275.648438 C 449.699219 250.351562 427.335938 231.304688 400.53125 231.304688 C 377.171875 231.304688 357.210938 245.777344 349.078125 266.25 C 338.085938 254.019531 322.136719 246.320312 304.394531 246.320312 C 301.40625 246.320312 298.480469 246.546875 295.625 246.953125 C 292.160156 209.769531 260.871094 180.667969 222.78125 180.667969 C 199.105469 180.667969 178.054688 191.925781 164.664062 209.363281 C 159.292969 207.777344 153.609375 206.917969 147.714844 206.917969 C 121.09375 206.917969 98.527344 224.242188 90.664062 248.246094 C 85.816406 246.976562 80.71875 246.296875 75.484375 246.296875 C 68.777344 246.296875 62.34375 247.40625 56.316406 249.445312 C 46.1875 238.304688 31.59375 231.304688 15.351562 231.304688 C -11.453125 231.304688 -33.816406 250.351562 -38.914062 275.648438 C -42.132812 274.878906 -45.464844 274.449219 -48.929688 274.449219 C -68.28125 274.449219 -84.570312 287.445312 -89.554688 305.179688 C -93.972656 302.914062 -98.980469 301.644531 -104.285156 301.644531 C -122.160156 301.644531 -136.660156 316.140625 -136.660156 334.007812 C -136.660156 351.875 -122.160156 366.367188 -104.285156 366.367188 L 520.164062 366.367188 C 538.042969 366.367188 552.542969 351.875 552.542969 334.007812 C 552.542969 316.140625 538.042969 301.644531 520.164062 301.644531 Z M 520.164062 301.644531 " fill-opacity="1" fill-rule="nonzero"/></g><g clip-path="url(#id2)"><path fill="#1c1d32" d="M 984.6875 329.265625 C 980.414062 329.265625 976.375 330.308594 972.8125 332.113281 C 968.773438 317.816406 955.640625 307.332031 940.054688 307.332031 C 937.277344 307.332031 934.574219 307.679688 931.980469 308.300781 C 927.871094 287.902344 909.839844 272.542969 888.226562 272.542969 C 869.390625 272.542969 853.296875 284.210938 846.738281 300.722656 C 837.875 290.859375 825.015625 284.652344 810.710938 284.652344 C 808.296875 284.652344 805.941406 284.832031 803.640625 285.160156 C 800.84375 255.175781 775.613281 231.707031 744.902344 231.707031 C 725.8125 231.707031 708.839844 240.785156 698.042969 254.847656 C 693.714844 253.566406 689.128906 252.875 684.378906 252.875 C 662.910156 252.875 644.714844 266.84375 638.375 286.203125 C 634.464844 285.179688 630.355469 284.632812 626.136719 284.632812 C 620.726562 284.632812 615.539062 285.527344 610.679688 287.171875 C 602.515625 278.183594 590.75 272.542969 577.648438 272.542969 C 556.035156 272.542969 538.003906 287.902344 533.894531 308.300781 C 531.300781 307.679688 528.613281 307.332031 525.820312 307.332031 C 510.21875 307.332031 497.082031 317.816406 493.0625 332.113281 C 489.5 330.289062 485.460938 329.265625 481.1875 329.265625 C 466.773438 329.265625 455.082031 340.953125 455.082031 355.363281 C 455.082031 369.773438 466.773438 381.460938 481.1875 381.460938 L 984.6875 381.460938 C 999.101562 381.460938 1010.792969 369.773438 1010.792969 355.363281 C 1010.792969 340.953125 999.101562 329.265625 984.6875 329.265625 Z M 984.6875 329.265625 " fill-opacity="1" fill-rule="nonzero"/></g><g clip-path="url(#id3)"><path fill="#1c1d32" d="M 1346.253906 353.203125 C 1341.976562 353.203125 1337.941406 354.242188 1334.378906 356.050781 C 1330.339844 341.75 1317.203125 331.269531 1301.621094 331.269531 C 1298.84375 331.269531 1296.140625 331.613281 1293.546875 332.234375 C 1289.433594 311.835938 1271.402344 296.476562 1249.789062 296.476562 C 1230.957031 296.476562 1214.859375 308.148438 1208.300781 324.65625 C 1199.441406 314.796875 1186.578125 308.585938 1172.273438 308.585938 C 1169.863281 308.585938 1167.507812 308.769531 1165.203125 309.097656 C 1162.410156 279.109375 1137.179688 255.640625 1106.46875 255.640625 C 1087.378906 255.640625 1070.40625 264.71875 1059.609375 278.78125 C 1055.277344 277.503906 1050.691406 276.808594 1045.941406 276.808594 C 1024.476562 276.808594 1006.28125 290.78125 999.941406 310.136719 C 996.03125 309.117188 991.921875 308.566406 987.699219 308.566406 C 982.292969 308.566406 977.105469 309.460938 972.246094 311.105469 C 964.078125 302.121094 952.3125 296.476562 939.214844 296.476562 C 917.601562 296.476562 899.570312 311.835938 895.460938 332.234375 C 892.863281 331.613281 890.179688 331.269531 887.382812 331.269531 C 871.78125 331.269531 858.648438 341.75 854.628906 356.050781 C 851.066406 354.222656 847.027344 353.203125 842.753906 353.203125 C 828.339844 353.203125 816.644531 364.890625 816.644531 379.296875 C 816.644531 393.707031 828.339844 405.394531 842.753906 405.394531 L 1346.253906 405.394531 C 1360.667969 405.394531 1372.359375 393.707031 1372.359375 379.296875 C 1372.359375 364.890625 1360.667969 353.203125 1346.253906 353.203125 Z M 1346.253906 353.203125 " fill-opacity="1" fill-rule="nonzero"/></g><g clip-path="url(#id4)"><path fill="#1c1d32" d="M 440.625 226.332031 C 440.003906 226.332031 439.382812 226.332031 438.777344 226.386719 C 434.320312 206.457031 416.523438 191.554688 395.234375 191.554688 C 373.945312 191.554688 355.578125 206.914062 351.46875 227.320312 C 348.875 226.699219 346.1875 226.351562 343.390625 226.351562 C 338.164062 226.351562 333.230469 227.558594 328.808594 229.65625 C 320.714844 214.203125 304.542969 203.664062 285.882812 203.664062 C 283.472656 203.664062 281.113281 203.847656 278.8125 204.175781 C 276.015625 174.164062 250.78125 150.691406 220.046875 150.691406 C 200.949219 150.691406 183.972656 159.769531 173.171875 173.835938 C 168.84375 172.554688 164.257812 171.863281 159.503906 171.863281 C 138.035156 171.863281 119.832031 185.835938 113.492188 205.199219 C 109.582031 204.175781 105.46875 203.628906 101.25 203.628906 C 74.496094 203.628906 52.824219 225.308594 52.824219 252.035156 C 52.824219 255.285156 53.152344 258.464844 53.757812 261.550781 C 51.125 260.308594 48.199219 259.613281 45.09375 259.613281 C 33.820312 259.613281 24.664062 268.746094 24.664062 280.035156 C 24.664062 291.324219 33.800781 300.457031 45.09375 300.457031 L 440.625 300.457031 C 461.109375 300.457031 477.703125 283.871094 477.703125 263.394531 C 477.703125 242.917969 461.109375 226.332031 440.625 226.332031 Z M 440.625 226.332031 " fill-opacity="1" fill-rule="nonzero"/></g><path fill="#1c1d32" d="M 197.691406 232.101562 C 188.914062 207.515625 159.421875 191.359375 125.714844 207.164062 C 125.714844 207.164062 113.78125 180.472656 81.832031 181.527344 C 49.882812 182.578125 42.507812 212.785156 42.507812 212.785156 C 42.507812 212.785156 0.726562 189.605469 -18.230469 237.019531 C -18.230469 237.019531 -44.210938 229.292969 -58.253906 252.121094 C -72.300781 274.953125 -38.59375 296.726562 -15.421875 280.21875 C -15.421875 280.21875 -12.613281 305.859375 26.707031 318.152344 C 66.03125 330.445312 99.035156 313.585938 107.8125 299.539062 C 107.8125 299.539062 125.367188 323.070312 167.496094 316.746094 C 209.628906 310.425781 208.574219 285.136719 208.574219 285.136719 C 208.574219 285.136719 239.820312 292.160156 251.058594 271.089844 C 262.292969 250.015625 248.871094 223.042969 229.640625 219.457031 C 208.925781 215.59375 197.691406 232.101562 197.691406 232.101562 Z M 197.691406 232.101562 " fill-opacity="1" fill-rule="nonzero"/><g clip-path="url(#id5)"><path fill="#d9d9d9" d="M 237.152344 322.558594 C 232.878906 322.558594 228.839844 323.601562 225.277344 325.410156 C 221.242188 311.109375 208.105469 300.625 192.523438 300.625 C 189.746094 300.625 187.042969 300.972656 184.449219 301.59375 C 180.335938 281.195312 162.304688 265.835938 140.691406 265.835938 C 121.855469 265.835938 105.761719 277.503906 99.203125 294.015625 C 90.34375 284.152344 77.480469 277.945312 63.175781 277.945312 C 60.765625 277.945312 58.40625 278.125 56.105469 278.457031 C 53.3125 248.46875 28.082031 225 -2.628906 225 C -21.722656 225 -38.691406 234.078125 -49.488281 248.140625 C -53.820312 246.859375 -58.40625 246.167969 -63.15625 246.167969 C -84.621094 246.167969 -102.816406 260.136719 -109.15625 279.496094 C -113.066406 278.472656 -117.175781 277.925781 -121.398438 277.925781 C -126.804688 277.925781 -131.992188 278.820312 -136.851562 280.464844 C -145.019531 271.480469 -156.785156 265.835938 -169.882812 265.835938 C -191.496094 265.835938 -209.527344 281.195312 -213.640625 301.59375 C -216.234375 300.972656 -218.917969 300.625 -221.714844 300.625 C -237.316406 300.625 -250.453125 311.109375 -254.472656 325.410156 C -258.035156 323.582031 -262.070312 322.558594 -266.347656 322.558594 C -280.761719 322.558594 -292.453125 334.246094 -292.453125 348.65625 C -292.453125 363.066406 -280.761719 374.753906 -266.347656 374.753906 L 237.152344 374.753906 C 251.570312 374.753906 263.261719 363.066406 263.261719 348.65625 C 263.261719 334.246094 251.570312 322.558594 237.152344 322.558594 Z M 237.152344 322.558594 " fill-opacity="1" fill-rule="nonzero"/></g><g clip-path="url(#id6)"><path fill="#ffffff" d="M 109.277344 327.722656 C 105.304688 327.722656 101.558594 328.691406 98.25 330.371094 C 94.5 317.074219 82.304688 307.324219 67.835938 307.324219 C 65.257812 307.324219 62.746094 307.648438 60.339844 308.222656 C 56.523438 289.25 39.78125 274.96875 19.714844 274.96875 C 2.226562 274.96875 -12.71875 285.820312 -18.808594 301.175781 C -27.035156 292.003906 -38.976562 286.226562 -52.257812 286.226562 C -54.496094 286.226562 -56.6875 286.398438 -58.824219 286.703125 C -61.417969 258.8125 -84.84375 236.988281 -113.359375 236.988281 C -131.082031 236.988281 -146.839844 245.429688 -156.867188 258.507812 C -160.886719 257.320312 -165.144531 256.675781 -169.554688 256.675781 C -189.484375 256.675781 -206.378906 269.667969 -212.265625 287.671875 C -215.894531 286.722656 -219.710938 286.210938 -223.632812 286.210938 C -228.652344 286.210938 -233.46875 287.042969 -237.980469 288.574219 C -245.5625 280.214844 -256.488281 274.96875 -268.648438 274.96875 C -288.714844 274.96875 -305.457031 289.25 -309.273438 308.222656 C -311.683594 307.648438 -314.175781 307.324219 -316.773438 307.324219 C -331.257812 307.324219 -343.453125 317.074219 -347.1875 330.371094 C -350.492188 328.675781 -354.242188 327.722656 -358.210938 327.722656 C -371.59375 327.722656 -382.449219 338.59375 -382.449219 351.996094 C -382.449219 365.394531 -371.59375 376.265625 -358.210938 376.265625 L 109.277344 376.265625 C 122.660156 376.265625 133.515625 365.394531 133.515625 351.996094 C 133.515625 338.59375 122.660156 327.722656 109.277344 327.722656 Z M 109.277344 327.722656 " fill-opacity="1" fill-rule="nonzero"/></g><g clip-path="url(#id7)"><path fill="#07071c" d="M 317.664062 397.558594 C 313.386719 397.558594 309.351562 398.601562 305.789062 400.410156 C 301.75 386.109375 288.613281 375.625 273.03125 375.625 C 270.253906 375.625 267.550781 375.972656 264.957031 376.59375 C 260.84375 356.195312 242.8125 340.835938 221.203125 340.835938 C 202.367188 340.835938 186.269531 352.503906 179.710938 369.015625 C 170.851562 359.152344 157.988281 352.945312 143.683594 352.945312 C 141.273438 352.945312 138.917969 353.125 136.613281 353.457031 C 133.820312 323.46875 108.589844 300 77.878906 300 C 58.789062 300 41.816406 309.078125 31.019531 323.140625 C 26.6875 321.859375 22.101562 321.167969 17.351562 321.167969 C -4.113281 321.167969 -22.308594 335.136719 -28.648438 354.496094 C -32.558594 353.472656 -36.667969 352.925781 -40.890625 352.925781 C -46.296875 352.925781 -51.484375 353.820312 -56.34375 355.464844 C -64.511719 346.480469 -76.277344 340.835938 -89.375 340.835938 C -110.988281 340.835938 -129.019531 356.195312 -133.128906 376.59375 C -135.726562 375.972656 -138.410156 375.625 -141.207031 375.625 C -156.808594 375.625 -169.941406 386.109375 -173.960938 400.410156 C -177.523438 398.582031 -181.5625 397.558594 -185.835938 397.558594 C -200.25 397.558594 -211.945312 409.246094 -211.945312 423.65625 C -211.945312 438.066406 -200.25 449.753906 -185.835938 449.753906 L 317.664062 449.753906 C 332.078125 449.753906 343.769531 438.066406 343.769531 423.65625 C 343.769531 409.246094 332.078125 397.558594 317.664062 397.558594 Z M 317.664062 397.558594 " fill-opacity="1" fill-rule="nonzero"/></g><g clip-path="url(#id8)"><path fill="#d9d9d9" d="M 496.660156 411.460938 C 492.691406 411.460938 488.941406 412.429688 485.632812 414.109375 C 481.886719 400.808594 469.6875 391.0625 455.21875 391.0625 C 452.640625 391.0625 450.132812 391.382812 447.722656 391.960938 C 443.90625 372.988281 427.164062 358.703125 407.097656 358.703125 C 389.609375 358.703125 374.664062 369.558594 368.574219 384.910156 C 360.347656 375.738281 348.40625 369.964844 335.125 369.964844 C 332.886719 369.964844 330.699219 370.136719 328.5625 370.441406 C 325.964844 342.550781 302.539062 320.726562 274.027344 320.726562 C 256.300781 320.726562 240.542969 329.167969 230.515625 342.246094 C 226.496094 341.054688 222.238281 340.410156 217.828125 340.410156 C 197.898438 340.410156 181.003906 353.40625 175.117188 371.410156 C 171.488281 370.457031 167.671875 369.949219 163.753906 369.949219 C 158.730469 369.949219 153.914062 370.78125 149.402344 372.308594 C 141.820312 363.953125 130.894531 358.703125 118.734375 358.703125 C 98.667969 358.703125 81.925781 372.988281 78.109375 391.960938 C 75.699219 391.382812 73.207031 391.0625 70.613281 391.0625 C 56.125 391.0625 43.929688 400.808594 40.199219 414.109375 C 36.890625 412.410156 33.140625 411.460938 29.171875 411.460938 C 15.789062 411.460938 4.933594 422.332031 4.933594 435.730469 C 4.933594 449.132812 15.789062 460.003906 29.171875 460.003906 L 496.660156 460.003906 C 510.042969 460.003906 520.898438 449.132812 520.898438 435.730469 C 520.898438 422.332031 510.042969 411.460938 496.660156 411.460938 Z M 496.660156 411.460938 " fill-opacity="1" fill-rule="nonzero"/></g><g clip-path="url(#id9)"><path fill="#1c1d32" d="M 648.203125 398.265625 C 643.929688 398.265625 639.890625 399.308594 636.328125 401.113281 C 632.292969 386.816406 619.15625 376.332031 603.570312 376.332031 C 600.796875 376.332031 598.089844 376.679688 595.496094 377.300781 C 591.386719 356.902344 573.355469 341.542969 551.742188 341.542969 C 532.90625 341.542969 516.8125 353.210938 510.253906 369.722656 C 501.390625 359.859375 488.53125 353.652344 474.226562 353.652344 C 471.8125 353.652344 469.457031 353.832031 467.15625 354.160156 C 464.359375 324.175781 439.128906 300.707031 408.421875 300.707031 C 389.328125 300.707031 372.355469 309.785156 361.558594 323.847656 C 357.230469 322.566406 352.644531 321.875 347.894531 321.875 C 326.429688 321.875 308.230469 335.84375 301.890625 355.203125 C 297.984375 354.179688 293.871094 353.632812 289.652344 353.632812 C 284.242188 353.632812 279.054688 354.527344 274.195312 356.171875 C 266.03125 347.183594 254.265625 341.542969 241.164062 341.542969 C 219.554688 341.542969 201.519531 356.902344 197.410156 377.300781 C 194.816406 376.679688 192.128906 376.332031 189.335938 376.332031 C 173.734375 376.332031 160.597656 386.816406 156.578125 401.113281 C 153.015625 399.289062 148.980469 398.265625 144.703125 398.265625 C 130.289062 398.265625 118.597656 409.953125 118.597656 424.363281 C 118.597656 438.773438 130.289062 450.460938 144.703125 450.460938 L 648.203125 450.460938 C 662.617188 450.460938 674.308594 438.773438 674.308594 424.363281 C 674.308594 409.953125 662.617188 398.265625 648.203125 398.265625 Z M 648.203125 398.265625 " fill-opacity="1" fill-rule="nonzero"/></g><g clip-path="url(#id10)"><path fill="#1c1d32" d="M 1061.496094 418.363281 C 1057.222656 418.363281 1053.183594 419.402344 1049.621094 421.210938 C 1045.585938 406.910156 1032.449219 396.429688 1016.867188 396.429688 C 1014.089844 396.429688 1011.386719 396.773438 1008.789062 397.394531 C 1004.679688 376.996094 986.648438 361.636719 965.035156 361.636719 C 946.199219 361.636719 930.105469 373.308594 923.546875 389.816406 C 914.6875 379.953125 901.824219 373.746094 887.519531 373.746094 C 885.109375 373.746094 882.75 373.929688 880.449219 374.257812 C 877.652344 344.269531 852.425781 320.800781 821.714844 320.800781 C 802.621094 320.800781 785.648438 329.878906 774.851562 343.941406 C 770.523438 342.664062 765.9375 341.96875 761.1875 341.96875 C 739.722656 341.96875 721.523438 355.941406 715.1875 375.296875 C 711.277344 374.273438 707.164062 373.726562 702.945312 373.726562 C 697.539062 373.726562 692.347656 374.621094 687.488281 376.265625 C 679.324219 367.28125 667.558594 361.636719 654.457031 361.636719 C 632.847656 361.636719 614.816406 376.996094 610.703125 397.394531 C 608.109375 396.773438 605.425781 396.429688 602.628906 396.429688 C 587.027344 396.429688 573.890625 406.910156 569.871094 421.210938 C 566.308594 419.382812 562.273438 418.363281 557.996094 418.363281 C 543.582031 418.363281 531.890625 430.050781 531.890625 444.457031 C 531.890625 458.867188 543.582031 470.554688 557.996094 470.554688 L 1061.496094 470.554688 C 1075.910156 470.554688 1087.605469 458.867188 1087.605469 444.457031 C 1087.605469 430.050781 1075.910156 418.363281 1061.496094 418.363281 Z M 1061.496094 418.363281 " fill-opacity="1" fill-rule="nonzero"/></g><g clip-path="url(#id11)"><path fill="#07071c" d="M 662.976562 402.769531 C 657.425781 402.769531 652.183594 404.121094 647.558594 406.472656 C 642.316406 387.882812 625.261719 374.257812 605.03125 374.257812 C 601.425781 374.257812 597.917969 374.707031 594.546875 375.515625 C 589.210938 348.996094 565.800781 329.027344 537.746094 329.027344 C 513.289062 329.027344 492.394531 344.199219 483.878906 365.660156 C 472.378906 352.839844 455.679688 344.769531 437.109375 344.769531 C 433.976562 344.769531 430.917969 345.007812 427.929688 345.433594 C 424.300781 306.449219 391.546875 275.941406 351.675781 275.941406 C 326.890625 275.941406 304.859375 287.742188 290.839844 306.023438 C 285.21875 304.359375 279.265625 303.457031 273.097656 303.457031 C 245.230469 303.457031 221.609375 321.621094 213.378906 346.785156 C 208.300781 345.457031 202.964844 344.746094 197.488281 344.746094 C 190.464844 344.746094 183.730469 345.910156 177.421875 348.046875 C 166.820312 336.363281 151.546875 329.027344 134.539062 329.027344 C 106.480469 329.027344 83.070312 348.996094 77.734375 375.515625 C 74.367188 374.707031 70.878906 374.257812 67.25 374.257812 C 46.996094 374.257812 29.941406 387.882812 24.726562 406.472656 C 20.101562 404.097656 14.859375 402.769531 9.308594 402.769531 C -9.40625 402.769531 -24.585938 417.964844 -24.585938 436.695312 C -24.585938 455.429688 -9.40625 470.621094 9.308594 470.621094 L 662.976562 470.621094 C 681.6875 470.621094 696.867188 455.429688 696.867188 436.695312 C 696.867188 417.964844 681.6875 402.769531 662.976562 402.769531 Z M 662.976562 402.769531 " fill-opacity="1" fill-rule="nonzero"/></g><g clip-path="url(#id12)"><path fill="#07071c" d="M 1023.722656 379.769531 C 1019.667969 379.769531 1015.835938 380.761719 1012.457031 382.476562 C 1008.625 368.890625 996.164062 358.933594 981.378906 358.933594 C 978.746094 358.933594 976.179688 359.261719 973.71875 359.851562 C 969.820312 340.472656 952.710938 325.878906 932.207031 325.878906 C 914.339844 325.878906 899.070312 336.96875 892.847656 352.652344 C 884.441406 343.28125 872.238281 337.382812 858.667969 337.382812 C 856.378906 337.382812 854.144531 337.558594 851.960938 337.871094 C 849.308594 309.378906 825.371094 287.085938 796.234375 287.085938 C 778.125 287.085938 762.023438 295.707031 751.777344 309.066406 C 747.671875 307.855469 743.320312 307.195312 738.8125 307.195312 C 718.449219 307.195312 701.183594 320.46875 695.171875 338.859375 C 691.460938 337.886719 687.5625 337.367188 683.558594 337.367188 C 678.429688 337.367188 673.503906 338.214844 668.894531 339.777344 C 661.148438 331.242188 649.984375 325.878906 637.558594 325.878906 C 617.054688 325.878906 599.945312 340.472656 596.046875 359.851562 C 593.585938 359.261719 591.039062 358.933594 588.386719 358.933594 C 573.585938 358.933594 561.121094 368.890625 557.308594 382.476562 C 553.929688 380.742188 550.097656 379.769531 546.042969 379.769531 C 532.367188 379.769531 521.277344 390.875 521.277344 404.566406 C 521.277344 418.253906 532.367188 429.359375 546.042969 429.359375 L 1023.722656 429.359375 C 1037.398438 429.359375 1048.492188 418.253906 1048.492188 404.566406 C 1048.492188 390.875 1037.398438 379.769531 1023.722656 379.769531 Z M 1023.722656 379.769531 " fill-opacity="1" fill-rule="nonzero"/></g><g clip-path="url(#id13)"><path fill="#07071c" d="M 1499.363281 359.125 C 1495.308594 359.125 1491.476562 360.117188 1488.097656 361.832031 C 1484.269531 348.25 1471.804688 338.289062 1457.023438 338.289062 C 1454.386719 338.289062 1451.820312 338.617188 1449.359375 339.207031 C 1445.460938 319.828125 1428.355469 305.238281 1407.851562 305.238281 C 1389.980469 305.238281 1374.710938 316.324219 1368.488281 332.007812 C 1360.082031 322.640625 1347.878906 316.738281 1334.308594 316.738281 C 1332.019531 316.738281 1329.785156 316.914062 1327.601562 317.226562 C 1324.949219 288.734375 1301.011719 266.441406 1271.878906 266.441406 C 1253.765625 266.441406 1237.664062 275.0625 1227.421875 288.425781 C 1223.3125 287.210938 1218.960938 286.550781 1214.457031 286.550781 C 1194.089844 286.550781 1176.828125 299.824219 1170.8125 318.214844 C 1167.101562 317.242188 1163.203125 316.722656 1159.199219 316.722656 C 1154.070312 316.722656 1149.148438 317.574219 1144.535156 319.132812 C 1136.789062 310.597656 1125.628906 305.238281 1113.199219 305.238281 C 1092.695312 305.238281 1075.589844 319.828125 1071.6875 339.207031 C 1069.226562 338.617188 1066.679688 338.289062 1064.027344 338.289062 C 1049.226562 338.289062 1036.765625 348.25 1032.949219 361.832031 C 1029.570312 360.097656 1025.742188 359.125 1021.683594 359.125 C 1008.011719 359.125 996.917969 370.230469 996.917969 383.921875 C 996.917969 397.609375 1008.011719 408.714844 1021.683594 408.714844 L 1499.363281 408.714844 C 1513.039062 408.714844 1524.132812 397.609375 1524.132812 383.921875 C 1524.132812 370.230469 1513.039062 359.125 1499.363281 359.125 Z M 1499.363281 359.125 " fill-opacity="1" fill-rule="nonzero"/></g></svg>