<svg xmlns="http://www.w3.org/2000/svg" xmlns:xlink="http://www.w3.org/1999/xlink" width="100" zoomAndPan="magnify" viewBox="0 0 75 225" height="300" preserveAspectRatio="xMidYMid meet" version="1.0"><defs><clipPath id="id1"><path d="M 0 3.558594 L 37.488281 3.558594 L 37.488281 176.058594 L 0 176.058594 Z M 0 3.558594 " clip-rule="nonzero"/></clipPath><clipPath id="id2"><path d="M 0 52.171875 L 34.882812 52.171875 L 34.882812 224.671875 L 0 224.671875 Z M 0 52.171875 " clip-rule="nonzero"/></clipPath><clipPath id="id3"><path d="M 0 0 L 30.820312 0 L 30.820312 162.152344 L 0 162.152344 Z M 0 0 " clip-rule="nonzero"/></clipPath></defs><g clip-path="url(#id1)"><path fill="#3d4c7a" d="M 7.207031 167.9375 C 7.207031 166.609375 6.882812 165.355469 6.324219 164.25 C 10.757812 162.996094 14.007812 158.921875 14.007812 154.082031 C 14.007812 153.222656 13.898438 152.382812 13.707031 151.578125 C 20.03125 150.300781 24.792969 144.703125 24.792969 137.996094 C 24.792969 132.148438 21.175781 127.152344 16.054688 125.117188 C 19.113281 122.367188 21.039062 118.375 21.039062 113.9375 C 21.039062 113.1875 20.984375 112.457031 20.878906 111.742188 C 30.179688 110.875 37.453125 103.042969 37.453125 93.511719 C 37.453125 87.585938 34.640625 82.316406 30.28125 78.964844 C 30.675781 77.621094 30.890625 76.199219 30.890625 74.722656 C 30.890625 68.058594 26.558594 62.414062 20.558594 60.445312 C 20.875 59.230469 21.046875 57.957031 21.046875 56.644531 C 21.046875 54.96875 20.769531 53.355469 20.257812 51.847656 C 23.042969 49.3125 24.792969 45.660156 24.792969 41.59375 C 24.792969 34.886719 20.03125 29.289062 13.707031 28.015625 C 13.898438 27.210938 14.007812 26.375 14.007812 25.507812 C 14.007812 20.664062 10.757812 16.589844 6.324219 15.339844 C 6.890625 14.234375 7.207031 12.980469 7.207031 11.65625 C 7.207031 7.179688 3.582031 3.550781 -0.886719 3.550781 C -5.351562 3.550781 -8.976562 7.179688 -8.976562 11.65625 L -8.976562 167.9375 C -8.976562 172.410156 -5.351562 176.039062 -0.886719 176.039062 C 3.582031 176.039062 7.207031 172.410156 7.207031 167.9375 Z M 7.207031 167.9375 " fill-opacity="1" fill-rule="nonzero"/></g><g clip-path="url(#id2)"><path fill="#3d4c7a" d="M 4.601562 216.550781 C 4.601562 215.226562 4.277344 213.972656 3.71875 212.867188 C 8.152344 211.613281 11.402344 207.535156 11.402344 202.699219 C 11.402344 201.835938 11.292969 200.996094 11.101562 200.191406 C 17.425781 198.917969 22.1875 193.320312 22.1875 186.609375 C 22.1875 180.765625 18.570312 175.769531 13.453125 173.734375 C 16.507812 170.984375 18.433594 166.992188 18.433594 162.550781 C 18.433594 161.800781 18.378906 161.070312 18.277344 160.355469 C 27.574219 159.488281 34.851562 151.65625 34.851562 142.125 C 34.851562 136.199219 32.035156 130.929688 27.675781 127.582031 C 28.074219 126.234375 28.289062 124.8125 28.289062 123.339844 C 28.289062 116.675781 23.957031 111.027344 17.953125 109.058594 C 18.269531 107.847656 18.441406 106.570312 18.441406 105.261719 C 18.441406 103.582031 18.164062 101.972656 17.652344 100.464844 C 20.441406 97.929688 22.1875 94.277344 22.1875 90.210938 C 22.1875 83.503906 17.425781 77.90625 11.101562 76.628906 C 11.292969 75.824219 11.402344 74.992188 11.402344 74.125 C 11.402344 69.28125 8.152344 65.203125 3.71875 63.957031 C 4.285156 62.851562 4.601562 61.597656 4.601562 60.269531 C 4.601562 55.796875 0.976562 52.167969 -3.488281 52.167969 C -7.957031 52.167969 -11.582031 55.796875 -11.582031 60.269531 L -11.582031 216.550781 C -11.582031 221.027344 -7.957031 224.65625 -3.488281 224.65625 C 0.976562 224.65625 4.601562 221.027344 4.601562 216.550781 Z M 4.601562 216.550781 " fill-opacity="1" fill-rule="nonzero"/></g><g clip-path="url(#id3)"><path fill="#d9d9d9" d="M 0.539062 154.03125 C 0.539062 152.707031 0.214844 151.453125 -0.34375 150.347656 C 4.089844 149.09375 7.339844 145.015625 7.339844 140.179688 C 7.339844 139.316406 7.230469 138.476562 7.039062 137.671875 C 13.363281 136.398438 18.125 130.800781 18.125 124.089844 C 18.125 118.246094 14.507812 113.25 9.386719 111.214844 C 12.445312 108.464844 14.371094 104.472656 14.371094 100.03125 C 14.371094 99.28125 14.316406 98.550781 14.210938 97.835938 C 23.511719 96.96875 30.785156 89.136719 30.785156 79.605469 C 30.785156 73.679688 27.972656 68.410156 23.613281 65.058594 C 24.007812 63.714844 24.222656 62.292969 24.222656 60.820312 C 24.222656 54.15625 19.890625 48.507812 13.890625 46.539062 C 14.207031 45.328125 14.375 44.050781 14.375 42.742188 C 14.375 41.0625 14.097656 39.453125 13.589844 37.945312 C 16.375 35.410156 18.125 31.757812 18.125 27.691406 C 18.125 20.984375 13.363281 15.386719 7.039062 14.109375 C 7.230469 13.304688 7.339844 12.472656 7.339844 11.601562 C 7.339844 6.761719 4.089844 2.683594 -0.34375 1.4375 C 0.21875 0.332031 0.539062 -0.921875 0.539062 -2.25 C 0.539062 -6.722656 -3.085938 -10.351562 -7.554688 -10.351562 C -12.023438 -10.351562 -15.644531 -6.722656 -15.644531 -2.25 L -15.644531 154.03125 C -15.644531 158.507812 -12.023438 162.136719 -7.554688 162.136719 C -3.085938 162.136719 0.539062 158.507812 0.539062 154.03125 Z M 0.539062 154.03125 " fill-opacity="1" fill-rule="nonzero"/></g></svg>