<svg xmlns="http://www.w3.org/2000/svg" xmlns:xlink="http://www.w3.org/1999/xlink" width="1980" zoomAndPan="magnify" viewBox="0 0 1485 374.999991" height="500" preserveAspectRatio="xMidYMid meet" version="1.0"><defs><filter x="0%" y="0%" width="100%" height="100%" id="id1"><feColorMatrix values="0 0 0 0 1 0 0 0 0 1 0 0 0 0 1 0 0 0 1 0" color-interpolation-filters="sRGB"/></filter><clipPath id="id2"><path d="M 975.671875 108 L 1485 108 L 1485 311 L 975.671875 311 Z M 975.671875 108 " clip-rule="nonzero"/></clipPath><mask id="id3"><g filter="url(#id1)"><rect x="-148.5" width="1782" fill="#000000" y="-37.499999" height="449.999989" fill-opacity="0.4471"/></g></mask><clipPath id="id4"><path d="M 3.300781 0.519531 L 482 0.519531 L 482 192.28125 L 3.300781 192.28125 Z M 3.300781 0.519531 " clip-rule="nonzero"/></clipPath><clipPath id="id5"><rect x="0" width="482" y="0" height="193"/></clipPath><clipPath id="id6"><path d="M 1412.234375 135 L 1485 135 L 1485 338.242188 L 1412.234375 338.242188 Z M 1412.234375 135 " clip-rule="nonzero"/></clipPath><mask id="id7"><g filter="url(#id1)"><rect x="-148.5" width="1782" fill="#000000" y="-37.499999" height="449.999989" fill-opacity="0.4471"/></g></mask><clipPath id="id8"><path d="M 3.234375 0.492188 L 76 0.492188 L 76 192.480469 L 3.234375 192.480469 Z M 3.234375 0.492188 " clip-rule="nonzero"/></clipPath><clipPath id="id9"><rect x="0" width="76" y="0" height="193"/></clipPath><clipPath id="id10"><path d="M 833.1875 135.722656 L 1485 135.722656 L 1485 311.972656 L 833.1875 311.972656 Z M 833.1875 135.722656 " clip-rule="nonzero"/></clipPath><clipPath id="id11"><path d="M 697.894531 180.761719 L 1253.644531 180.761719 L 1253.644531 330.761719 L 697.894531 330.761719 Z M 697.894531 180.761719 " clip-rule="nonzero"/></clipPath><clipPath id="id12"><path d="M 987.257812 235.203125 L 1485 235.203125 L 1485 375 L 987.257812 375 Z M 987.257812 235.203125 " clip-rule="nonzero"/></clipPath></defs><g clip-path="url(#id2)"><path fill="#5e6b9b" d="M 1693.222656 240.253906 C 1687.433594 240.253906 1681.960938 241.667969 1677.132812 244.117188 C 1671.664062 224.738281 1653.867188 210.535156 1632.75 210.535156 C 1628.988281 210.535156 1625.324219 211.003906 1621.8125 211.847656 C 1616.242188 184.203125 1591.808594 163.394531 1562.527344 163.394531 C 1537.003906 163.394531 1515.199219 179.207031 1506.3125 201.578125 C 1494.304688 188.214844 1476.878906 179.800781 1457.496094 179.800781 C 1454.230469 179.800781 1451.035156 180.046875 1447.917969 180.492188 C 1444.128906 139.859375 1409.945312 108.058594 1368.335938 108.058594 C 1342.46875 108.058594 1319.472656 120.359375 1304.84375 139.414062 C 1298.976562 137.679688 1292.761719 136.742188 1286.328125 136.742188 C 1257.242188 136.742188 1232.585938 155.671875 1224 181.902344 C 1218.699219 180.515625 1213.132812 179.773438 1207.414062 179.773438 C 1200.085938 179.773438 1193.054688 180.988281 1186.472656 183.214844 C 1175.40625 171.039062 1159.464844 163.394531 1141.71875 163.394531 C 1112.433594 163.394531 1088.003906 184.203125 1082.433594 211.847656 C 1078.917969 211.003906 1075.28125 210.535156 1071.492188 210.535156 C 1050.351562 210.535156 1032.554688 224.738281 1027.109375 244.117188 C 1022.28125 241.640625 1016.8125 240.253906 1011.019531 240.253906 C 991.488281 240.253906 975.648438 256.09375 975.648438 275.617188 C 975.648438 295.144531 991.488281 310.980469 1011.019531 310.980469 L 1693.222656 310.980469 C 1712.753906 310.980469 1728.597656 295.144531 1728.597656 275.617188 C 1728.597656 256.09375 1712.753906 240.253906 1693.222656 240.253906 Z M 1693.222656 240.253906 " fill-opacity="1" fill-rule="nonzero"/></g><g mask="url(#id3)"><g transform="matrix(1, 0, 0, 1, 1003, 113)"><g clip-path="url(#id5)"><g clip-path="url(#id4)"><path fill="#1c1d32" d="M 681.546875 125.445312 C 676.070312 125.445312 670.902344 126.777344 666.339844 129.089844 C 661.167969 110.789062 644.34375 97.371094 624.386719 97.371094 C 620.832031 97.371094 617.367188 97.8125 614.042969 98.609375 C 608.78125 72.496094 585.6875 52.835938 558.007812 52.835938 C 533.886719 52.835938 513.273438 67.773438 504.871094 88.90625 C 493.523438 76.285156 477.054688 68.335938 458.734375 68.335938 C 455.644531 68.335938 452.625 68.570312 449.679688 68.992188 C 446.097656 30.605469 413.785156 0.570312 374.457031 0.570312 C 350.003906 0.570312 328.269531 12.1875 314.441406 30.1875 C 308.894531 28.550781 303.023438 27.660156 296.941406 27.660156 C 269.449219 27.660156 246.144531 45.542969 238.023438 70.324219 C 233.019531 69.015625 227.753906 68.3125 222.347656 68.3125 C 215.421875 68.3125 208.777344 69.457031 202.554688 71.5625 C 192.09375 60.0625 177.027344 52.835938 160.25 52.835938 C 132.574219 52.835938 109.480469 72.496094 104.214844 98.609375 C 100.890625 97.8125 97.453125 97.371094 93.875 97.371094 C 73.890625 97.371094 57.070312 110.789062 51.921875 129.089844 C 47.359375 126.753906 42.1875 125.445312 36.714844 125.445312 C 18.253906 125.445312 3.277344 140.40625 3.277344 158.847656 C 3.277344 177.292969 18.253906 192.253906 36.714844 192.253906 L 681.546875 192.253906 C 700.007812 192.253906 714.980469 177.292969 714.980469 158.847656 C 714.980469 140.40625 700.007812 125.445312 681.546875 125.445312 Z M 681.546875 125.445312 " fill-opacity="1" fill-rule="nonzero"/></g></g></g></g><g clip-path="url(#id6)"><path fill="#2a3f8f" d="M 2129.789062 267.351562 C 2123.996094 267.351562 2118.523438 268.761719 2113.699219 271.210938 C 2108.226562 251.835938 2090.429688 237.632812 2069.316406 237.632812 C 2065.554688 237.632812 2061.890625 238.101562 2058.375 238.941406 C 2052.804688 211.300781 2028.375 190.488281 1999.089844 190.488281 C 1973.570312 190.488281 1951.761719 206.300781 1942.875 228.671875 C 1930.871094 215.308594 1913.441406 206.894531 1894.0625 206.894531 C 1890.792969 206.894531 1887.601562 207.144531 1884.480469 207.589844 C 1880.695312 166.957031 1846.507812 135.15625 1804.898438 135.15625 C 1779.03125 135.15625 1756.035156 147.457031 1741.40625 166.511719 C 1735.539062 164.777344 1729.328125 163.835938 1722.890625 163.835938 C 1693.804688 163.835938 1669.152344 182.769531 1660.5625 209 C 1655.265625 207.613281 1649.695312 206.871094 1643.976562 206.871094 C 1636.648438 206.871094 1629.621094 208.085938 1623.035156 210.3125 C 1611.96875 198.136719 1596.03125 190.488281 1578.28125 190.488281 C 1548.996094 190.488281 1524.566406 211.300781 1518.996094 238.941406 C 1515.480469 238.101562 1511.84375 237.632812 1508.054688 237.632812 C 1486.917969 237.632812 1469.117188 251.835938 1463.671875 271.210938 C 1458.847656 268.738281 1453.375 267.351562 1447.582031 267.351562 C 1428.050781 267.351562 1412.210938 283.191406 1412.210938 302.714844 C 1412.210938 322.242188 1428.050781 338.078125 1447.582031 338.078125 L 2129.789062 338.078125 C 2149.320312 338.078125 2165.160156 322.242188 2165.160156 302.714844 C 2165.160156 283.191406 2149.320312 267.351562 2129.789062 267.351562 Z M 2129.789062 267.351562 " fill-opacity="1" fill-rule="nonzero"/></g><g mask="url(#id7)"><g transform="matrix(1, 0, 0, 1, 1409, 138)"><g clip-path="url(#id9)"><g clip-path="url(#id8)"><path fill="#1c1d32" d="M 681.480469 125.527344 C 676.003906 125.527344 670.835938 126.859375 666.273438 129.171875 C 661.101562 110.871094 644.277344 97.453125 624.320312 97.453125 C 620.761719 97.453125 617.300781 97.894531 613.976562 98.691406 C 608.714844 72.578125 585.621094 52.921875 557.941406 52.921875 C 533.820312 52.921875 513.207031 67.859375 504.804688 88.988281 C 493.457031 76.367188 476.984375 68.417969 458.667969 68.417969 C 455.578125 68.417969 452.558594 68.652344 449.609375 69.074219 C 446.03125 30.691406 413.71875 0.652344 374.386719 0.652344 C 349.9375 0.652344 328.203125 12.269531 314.375 30.269531 C 308.828125 28.632812 302.957031 27.746094 296.871094 27.746094 C 269.378906 27.746094 246.078125 45.628906 237.957031 70.40625 C 232.949219 69.097656 227.6875 68.394531 222.28125 68.394531 C 215.355469 68.394531 208.710938 69.539062 202.488281 71.644531 C 192.027344 60.144531 176.960938 52.921875 160.183594 52.921875 C 132.507812 52.921875 109.414062 72.578125 104.148438 98.691406 C 100.824219 97.894531 97.386719 97.453125 93.804688 97.453125 C 73.824219 97.453125 57.003906 110.871094 51.855469 129.171875 C 47.292969 126.835938 42.121094 125.527344 36.648438 125.527344 C 18.1875 125.527344 3.210938 140.488281 3.210938 158.929688 C 3.210938 177.375 18.1875 192.335938 36.648438 192.335938 L 681.480469 192.335938 C 699.941406 192.335938 714.914062 177.375 714.914062 158.929688 C 714.914062 140.488281 699.941406 125.527344 681.480469 125.527344 Z M 681.480469 125.527344 " fill-opacity="1" fill-rule="nonzero"/></g></g></g></g><g clip-path="url(#id10)"><path fill="#d9d9d9" d="M 1455.6875 250.503906 C 1450.660156 250.503906 1445.914062 251.726562 1441.726562 253.851562 C 1436.980469 237.046875 1421.542969 224.730469 1403.226562 224.730469 C 1399.960938 224.730469 1396.78125 225.136719 1393.734375 225.867188 C 1388.902344 201.894531 1367.707031 183.847656 1342.300781 183.847656 C 1320.160156 183.847656 1301.242188 197.558594 1293.535156 216.960938 C 1283.117188 205.371094 1268 198.074219 1251.1875 198.074219 C 1248.351562 198.074219 1245.582031 198.289062 1242.875 198.675781 C 1239.589844 163.4375 1209.933594 135.863281 1173.835938 135.863281 C 1151.394531 135.863281 1131.445312 146.527344 1118.753906 163.050781 C 1113.664062 161.550781 1108.273438 160.734375 1102.691406 160.734375 C 1077.457031 160.734375 1056.070312 177.152344 1048.617188 199.898438 C 1044.023438 198.699219 1039.191406 198.054688 1034.230469 198.054688 C 1027.875 198.054688 1021.777344 199.105469 1016.0625 201.035156 C 1006.464844 190.480469 992.636719 183.847656 977.238281 183.847656 C 951.832031 183.847656 930.636719 201.894531 925.808594 225.867188 C 922.757812 225.136719 919.601562 224.730469 916.316406 224.730469 C 897.976562 224.730469 882.535156 237.046875 877.8125 253.851562 C 873.625 251.703125 868.878906 250.503906 863.851562 250.503906 C 846.910156 250.503906 833.167969 264.238281 833.167969 281.167969 C 833.167969 298.101562 846.910156 311.835938 863.851562 311.835938 L 1455.6875 311.835938 C 1472.628906 311.835938 1486.375 298.101562 1486.375 281.167969 C 1486.375 264.238281 1472.628906 250.503906 1455.6875 250.503906 Z M 1455.6875 250.503906 " fill-opacity="1" fill-rule="nonzero"/></g><g clip-path="url(#id11)"><path fill="#ffffff" d="M 1227.480469 278.445312 C 1223.207031 278.445312 1219.167969 279.488281 1215.605469 281.292969 C 1211.570312 266.996094 1198.433594 256.511719 1182.851562 256.511719 C 1180.074219 256.511719 1177.371094 256.859375 1174.777344 257.480469 C 1170.664062 237.082031 1152.632812 221.722656 1131.019531 221.722656 C 1112.183594 221.722656 1096.089844 233.390625 1089.53125 249.902344 C 1080.671875 240.039062 1067.808594 233.828125 1053.503906 233.828125 C 1051.09375 233.828125 1048.734375 234.011719 1046.433594 234.339844 C 1043.640625 204.355469 1018.410156 180.886719 987.699219 180.886719 C 968.605469 180.886719 951.636719 189.960938 940.839844 204.023438 C 936.507812 202.746094 931.921875 202.050781 927.171875 202.050781 C 905.707031 202.050781 887.511719 216.023438 881.171875 235.382812 C 877.261719 234.359375 873.152344 233.8125 868.929688 233.8125 C 863.523438 233.8125 858.335938 234.707031 853.472656 236.351562 C 845.308594 227.363281 833.542969 221.722656 820.445312 221.722656 C 798.832031 221.722656 780.800781 237.082031 776.6875 257.480469 C 774.09375 256.859375 771.410156 256.511719 768.613281 256.511719 C 753.011719 256.511719 739.875 266.996094 735.855469 281.292969 C 732.292969 279.46875 728.257812 278.445312 723.980469 278.445312 C 709.566406 278.445312 697.875 290.132812 697.875 304.542969 C 697.875 318.953125 709.566406 330.640625 723.980469 330.640625 L 1227.480469 330.640625 C 1241.898438 330.640625 1253.589844 318.953125 1253.589844 304.542969 C 1253.589844 290.132812 1241.898438 278.445312 1227.480469 278.445312 Z M 1227.480469 278.445312 " fill-opacity="1" fill-rule="nonzero"/></g><g clip-path="url(#id12)"><path fill="#07071c" d="M 1516.847656 332.882812 C 1512.570312 332.882812 1508.535156 333.925781 1504.972656 335.734375 C 1500.933594 321.433594 1487.796875 310.949219 1472.214844 310.949219 C 1469.4375 310.949219 1466.734375 311.296875 1464.140625 311.917969 C 1460.027344 291.519531 1441.996094 276.160156 1420.382812 276.160156 C 1401.550781 276.160156 1385.453125 287.832031 1378.894531 304.339844 C 1370.035156 294.476562 1357.171875 288.269531 1342.867188 288.269531 C 1340.457031 288.269531 1338.101562 288.453125 1335.796875 288.78125 C 1333.003906 258.792969 1307.773438 235.324219 1277.0625 235.324219 C 1257.972656 235.324219 1241 244.402344 1230.203125 258.464844 C 1225.871094 257.1875 1221.285156 256.492188 1216.535156 256.492188 C 1195.070312 256.492188 1176.875 270.460938 1170.535156 289.820312 C 1166.625 288.796875 1162.515625 288.25 1158.292969 288.25 C 1152.886719 288.25 1147.699219 289.144531 1142.839844 290.789062 C 1134.671875 281.804688 1122.90625 276.160156 1109.808594 276.160156 C 1088.195312 276.160156 1070.164062 291.519531 1066.054688 311.917969 C 1063.457031 311.296875 1060.773438 310.949219 1057.976562 310.949219 C 1042.375 310.949219 1029.242188 321.433594 1025.222656 335.734375 C 1021.660156 333.90625 1017.621094 332.882812 1013.347656 332.882812 C 998.933594 332.882812 987.238281 344.574219 987.238281 358.980469 C 987.238281 373.390625 998.933594 385.078125 1013.347656 385.078125 L 1516.847656 385.078125 C 1531.261719 385.078125 1542.953125 373.390625 1542.953125 358.980469 C 1542.953125 344.574219 1531.261719 332.882812 1516.847656 332.882812 Z M 1516.847656 332.882812 " fill-opacity="1" fill-rule="nonzero"/></g></svg>