<svg xmlns="http://www.w3.org/2000/svg" xmlns:xlink="http://www.w3.org/1999/xlink" width="100" zoomAndPan="magnify" viewBox="0 0 75 225" height="300" preserveAspectRatio="xMidYMid meet" version="1.0"><defs><clipPath id="id1"><path d="M 37.5 48.929688 L 75 48.929688 L 75 221.429688 L 37.5 221.429688 Z M 37.5 48.929688 " clip-rule="nonzero"/></clipPath><clipPath id="id2"><path d="M 40.105469 0.316406 L 75 0.316406 L 75 172.5 L 40.105469 172.5 Z M 40.105469 0.316406 " clip-rule="nonzero"/></clipPath><clipPath id="id3"><path d="M 44.167969 62.835938 L 75 62.835938 L 75 225 L 44.167969 225 Z M 44.167969 62.835938 " clip-rule="nonzero"/></clipPath></defs><g clip-path="url(#id1)"><path fill="#3d4c7a" d="M 67.78125 57.050781 C 67.78125 58.378906 68.105469 59.632812 68.664062 60.738281 C 64.230469 61.992188 60.980469 66.066406 60.980469 70.90625 C 60.980469 71.765625 61.089844 72.605469 61.28125 73.410156 C 54.957031 74.6875 50.195312 80.285156 50.195312 86.992188 C 50.195312 92.839844 53.8125 97.835938 58.933594 99.871094 C 55.875 102.621094 53.949219 106.613281 53.949219 111.054688 C 53.949219 111.800781 54.003906 112.53125 54.109375 113.246094 C 44.808594 114.113281 37.535156 121.945312 37.535156 131.476562 C 37.535156 137.402344 40.347656 142.671875 44.707031 146.023438 C 44.3125 147.367188 44.097656 148.789062 44.097656 150.265625 C 44.097656 156.929688 48.429688 162.574219 54.429688 164.542969 C 54.113281 165.757812 53.945312 167.03125 53.945312 168.34375 C 53.945312 170.019531 54.222656 171.632812 54.730469 173.140625 C 51.945312 175.675781 50.195312 179.328125 50.195312 183.394531 C 50.195312 190.101562 54.957031 195.699219 61.28125 196.972656 C 61.089844 197.777344 60.980469 198.613281 60.980469 199.480469 C 60.980469 204.324219 64.230469 208.398438 68.664062 209.648438 C 68.101562 210.753906 67.78125 212.007812 67.78125 213.332031 C 67.78125 217.808594 71.40625 221.4375 75.875 221.4375 C 80.34375 221.4375 83.964844 217.808594 83.964844 213.332031 L 83.964844 57.050781 C 83.964844 52.578125 80.34375 48.949219 75.875 48.949219 C 71.40625 48.949219 67.78125 52.578125 67.78125 57.050781 Z M 67.78125 57.050781 " fill-opacity="1" fill-rule="nonzero"/></g><g clip-path="url(#id2)"><path fill="#3d4c7a" d="M 70.386719 164.378906 C 70.386719 163.050781 70.710938 161.800781 71.269531 160.691406 C 66.835938 159.441406 63.585938 155.363281 63.585938 150.527344 C 63.585938 149.664062 63.695312 148.824219 63.886719 148.019531 C 57.5625 146.742188 52.800781 141.148438 52.800781 134.4375 C 52.800781 128.59375 56.417969 123.597656 61.535156 121.558594 C 58.480469 118.808594 56.554688 114.816406 56.554688 110.378906 C 56.554688 109.628906 56.609375 108.898438 56.710938 108.183594 C 47.414062 107.316406 40.136719 99.484375 40.136719 89.953125 C 40.136719 84.027344 42.953125 78.757812 47.3125 75.40625 C 46.917969 74.0625 46.699219 72.640625 46.699219 71.164062 C 46.699219 64.503906 51.03125 58.855469 57.035156 56.886719 C 56.71875 55.671875 56.546875 54.398438 56.546875 53.085938 C 56.546875 51.410156 56.824219 49.800781 57.335938 48.289062 C 54.550781 45.753906 52.800781 42.105469 52.800781 38.039062 C 52.800781 31.328125 57.5625 25.734375 63.886719 24.457031 C 63.695312 23.652344 63.585938 22.816406 63.585938 21.949219 C 63.585938 17.109375 66.835938 13.03125 71.269531 11.78125 C 70.703125 10.675781 70.386719 9.425781 70.386719 8.097656 C 70.386719 3.625 74.011719 -0.0078125 78.480469 -0.0078125 C 82.945312 -0.0078125 86.570312 3.625 86.570312 8.097656 L 86.570312 164.378906 C 86.570312 168.851562 82.945312 172.484375 78.480469 172.484375 C 74.011719 172.484375 70.386719 168.851562 70.386719 164.378906 Z M 70.386719 164.378906 " fill-opacity="1" fill-rule="nonzero"/></g><g clip-path="url(#id3)"><path fill="#d9d9d9" d="M 74.449219 226.898438 C 74.449219 225.570312 74.773438 224.320312 75.335938 223.214844 C 70.902344 221.960938 67.648438 217.882812 67.648438 213.046875 C 67.648438 212.183594 67.757812 211.34375 67.949219 210.539062 C 61.625 209.261719 56.863281 203.667969 56.863281 196.957031 C 56.863281 191.113281 60.480469 186.117188 65.601562 184.082031 C 62.542969 181.332031 60.617188 177.339844 60.617188 172.898438 C 60.617188 172.148438 60.675781 171.417969 60.777344 170.703125 C 51.476562 169.835938 44.203125 162.003906 44.203125 152.472656 C 44.203125 146.546875 47.015625 141.277344 51.375 137.925781 C 50.980469 136.582031 50.765625 135.160156 50.765625 133.6875 C 50.765625 127.023438 55.097656 121.375 61.097656 119.40625 C 60.78125 118.195312 60.613281 116.917969 60.613281 115.609375 C 60.613281 113.929688 60.890625 112.320312 61.398438 110.808594 C 58.613281 108.277344 56.863281 104.625 56.863281 100.558594 C 56.863281 93.847656 61.625 88.253906 67.949219 86.976562 C 67.757812 86.171875 67.648438 85.339844 67.648438 84.46875 C 67.648438 79.628906 70.902344 75.550781 75.335938 74.304688 C 74.769531 73.195312 74.449219 71.945312 74.449219 70.617188 C 74.449219 66.144531 78.074219 62.515625 82.542969 62.515625 C 87.011719 62.515625 90.632812 66.144531 90.632812 70.617188 L 90.632812 226.898438 C 90.632812 231.375 87.011719 235.003906 82.542969 235.003906 C 78.074219 235.003906 74.449219 231.375 74.449219 226.898438 Z M 74.449219 226.898438 " fill-opacity="1" fill-rule="nonzero"/></g></svg>