<svg xmlns="http://www.w3.org/2000/svg" xmlns:xlink="http://www.w3.org/1999/xlink" width="1980" zoomAndPan="magnify" viewBox="0 0 1485 374.999991" height="500" preserveAspectRatio="xMidYMid meet" version="1.0"><defs><clipPath id="id1"><path d="M 0 145.765625 L 505.914062 145.765625 L 505.914062 295.765625 L 0 295.765625 Z M 0 145.765625 " clip-rule="nonzero"/></clipPath><clipPath id="id2"><path d="M 312.765625 145.765625 L 868.316406 145.765625 L 868.316406 295.765625 L 312.765625 295.765625 Z M 312.765625 145.765625 " clip-rule="nonzero"/></clipPath><clipPath id="id3"><path d="M 1400.550781 133.382812 L 1485 133.382812 L 1485 283.382812 L 1400.550781 283.382812 Z M 1400.550781 133.382812 " clip-rule="nonzero"/></clipPath><clipPath id="id4"><path d="M 1005.171875 132.632812 L 1485 132.632812 L 1485 282.632812 L 1005.171875 282.632812 Z M 1005.171875 132.632812 " clip-rule="nonzero"/></clipPath><clipPath id="id5"><path d="M 619.296875 171 L 1174.847656 171 L 1174.847656 320.882812 L 619.296875 320.882812 Z M 619.296875 171 " clip-rule="nonzero"/></clipPath><clipPath id="id6"><path d="M 404.589844 178.6875 L 960.339844 178.6875 L 960.339844 328.6875 L 404.589844 328.6875 Z M 404.589844 178.6875 " clip-rule="nonzero"/></clipPath><clipPath id="id7"><path d="M 9.210938 178 L 564.761719 178 L 564.761719 327.9375 L 9.210938 327.9375 Z M 9.210938 178 " clip-rule="nonzero"/></clipPath><clipPath id="id8"><path d="M 0 216.1875 L 178.882812 216.1875 L 178.882812 366.1875 L 0 366.1875 Z M 0 216.1875 " clip-rule="nonzero"/></clipPath><clipPath id="id9"><path d="M 0 227.179688 L 295.378906 227.179688 L 295.378906 375 L 0 375 Z M 0 227.179688 " clip-rule="nonzero"/></clipPath><clipPath id="id10"><path d="M 102.03125 227.179688 L 657.78125 227.179688 L 657.78125 375 L 102.03125 375 Z M 102.03125 227.179688 " clip-rule="nonzero"/></clipPath><clipPath id="id11"><path d="M 1189.816406 214.796875 L 1485 214.796875 L 1485 364.796875 L 1189.816406 364.796875 Z M 1189.816406 214.796875 " clip-rule="nonzero"/></clipPath><clipPath id="id12"><path d="M 794.4375 214.046875 L 1350.1875 214.046875 L 1350.1875 364 L 794.4375 364 Z M 794.4375 214.046875 " clip-rule="nonzero"/></clipPath><clipPath id="id13"><path d="M 408.5625 252.296875 L 964.3125 252.296875 L 964.3125 375 L 408.5625 375 Z M 408.5625 252.296875 " clip-rule="nonzero"/></clipPath><clipPath id="id14"><path d="M 0 278.394531 L 122.964844 278.394531 L 122.964844 375 L 0 375 Z M 0 278.394531 " clip-rule="nonzero"/></clipPath><clipPath id="id15"><path d="M 0 278.394531 L 485.367188 278.394531 L 485.367188 375 L 0 375 Z M 0 278.394531 " clip-rule="nonzero"/></clipPath><clipPath id="id16"><path d="M 1017.402344 266.011719 L 1485 266.011719 L 1485 375 L 1017.402344 375 Z M 1017.402344 266.011719 " clip-rule="nonzero"/></clipPath><clipPath id="id17"><path d="M 622.023438 265.261719 L 1177.773438 265.261719 L 1177.773438 375 L 622.023438 375 Z M 622.023438 265.261719 " clip-rule="nonzero"/></clipPath><clipPath id="id18"><path d="M 236.148438 303.511719 L 791.898438 303.511719 L 791.898438 375 L 236.148438 375 Z M 236.148438 303.511719 " clip-rule="nonzero"/></clipPath></defs><g clip-path="url(#id1)"><path fill="#23243d" d="M -23.675781 243.445312 C -19.398438 243.445312 -15.363281 244.488281 -11.800781 246.296875 C -7.761719 231.996094 5.375 221.511719 20.957031 221.511719 C 23.734375 221.511719 26.4375 221.859375 29.03125 222.480469 C 33.144531 202.082031 51.175781 186.722656 72.789062 186.722656 C 91.625 186.722656 107.71875 198.394531 114.277344 214.902344 C 123.136719 205.039062 136 198.832031 150.304688 198.832031 C 152.714844 198.832031 155.074219 199.015625 157.375 199.34375 C 160.167969 169.355469 185.398438 145.886719 216.109375 145.886719 C 235.199219 145.886719 252.171875 154.964844 262.96875 169.027344 C 267.300781 167.746094 271.886719 167.054688 276.636719 167.054688 C 298.101562 167.054688 316.296875 181.023438 322.636719 200.382812 C 326.546875 199.359375 330.65625 198.8125 334.878906 198.8125 C 340.285156 198.8125 345.472656 199.707031 350.332031 201.351562 C 358.5 192.367188 370.265625 186.722656 383.363281 186.722656 C 404.976562 186.722656 423.007812 202.082031 427.121094 222.480469 C 429.714844 221.859375 432.398438 221.511719 435.195312 221.511719 C 450.796875 221.511719 463.933594 231.996094 467.949219 246.296875 C 471.511719 244.46875 475.550781 243.445312 479.824219 243.445312 C 494.242188 243.445312 505.933594 255.136719 505.933594 269.542969 C 505.933594 283.953125 494.242188 295.640625 479.824219 295.640625 L -23.675781 295.640625 C -38.089844 295.640625 -49.78125 283.953125 -49.78125 269.542969 C -49.78125 255.136719 -38.089844 243.445312 -23.675781 243.445312 Z M -23.675781 243.445312 " fill-opacity="1" fill-rule="nonzero"/></g><g clip-path="url(#id2)"><path fill="#23243d" d="M 338.730469 243.445312 C 343.003906 243.445312 347.042969 244.488281 350.605469 246.296875 C 354.640625 231.996094 367.777344 221.511719 383.363281 221.511719 C 386.136719 221.511719 388.84375 221.859375 391.4375 222.480469 C 395.546875 202.082031 413.578125 186.722656 435.191406 186.722656 C 454.027344 186.722656 470.121094 198.394531 476.679688 214.902344 C 485.542969 205.039062 498.402344 198.832031 512.707031 198.832031 C 515.117188 198.832031 517.476562 199.015625 519.777344 199.34375 C 522.574219 169.355469 547.800781 145.886719 578.511719 145.886719 C 597.605469 145.886719 614.578125 154.964844 625.375 169.027344 C 629.703125 167.746094 634.289062 167.054688 639.039062 167.054688 C 660.503906 167.054688 678.703125 181.023438 685.042969 200.382812 C 688.949219 199.359375 693.0625 198.8125 697.28125 198.8125 C 702.6875 198.8125 707.878906 199.707031 712.738281 201.351562 C 720.902344 192.367188 732.667969 186.722656 745.769531 186.722656 C 767.378906 186.722656 785.414062 202.082031 789.523438 222.480469 C 792.117188 221.859375 794.800781 221.511719 797.597656 221.511719 C 813.199219 221.511719 826.335938 231.996094 830.355469 246.296875 C 833.917969 244.46875 837.953125 243.445312 842.230469 243.445312 C 856.644531 243.445312 868.335938 255.136719 868.335938 269.542969 C 868.335938 283.953125 856.644531 295.640625 842.230469 295.640625 L 338.730469 295.640625 C 324.316406 295.640625 312.621094 283.953125 312.621094 269.542969 C 312.621094 255.136719 324.316406 243.445312 338.730469 243.445312 Z M 338.730469 243.445312 " fill-opacity="1" fill-rule="nonzero"/></g><g clip-path="url(#id3)"><path fill="#23243d" d="M 1930.140625 231.0625 C 1925.863281 231.0625 1921.828125 232.105469 1918.265625 233.914062 C 1914.226562 219.613281 1901.089844 209.128906 1885.507812 209.128906 C 1882.730469 209.128906 1880.027344 209.476562 1877.433594 210.097656 C 1873.324219 189.699219 1855.289062 174.339844 1833.679688 174.339844 C 1814.84375 174.339844 1798.746094 186.007812 1792.1875 202.519531 C 1783.328125 192.65625 1770.464844 186.449219 1756.160156 186.449219 C 1753.75 186.449219 1751.394531 186.628906 1749.089844 186.957031 C 1746.296875 156.972656 1721.066406 133.503906 1690.355469 133.503906 C 1671.265625 133.503906 1654.292969 142.582031 1643.496094 156.644531 C 1639.164062 155.363281 1634.582031 154.671875 1629.832031 154.671875 C 1608.363281 154.671875 1590.167969 168.640625 1583.828125 188 C 1579.917969 186.976562 1575.808594 186.429688 1571.589844 186.429688 C 1566.179688 186.429688 1560.992188 187.324219 1556.132812 188.96875 C 1547.964844 179.984375 1536.199219 174.339844 1523.101562 174.339844 C 1501.488281 174.339844 1483.457031 189.699219 1479.347656 210.097656 C 1476.753906 209.476562 1474.066406 209.128906 1471.273438 209.128906 C 1455.667969 209.128906 1442.535156 219.613281 1438.515625 233.914062 C 1434.953125 232.085938 1430.914062 231.0625 1426.640625 231.0625 C 1412.226562 231.0625 1400.53125 242.75 1400.53125 257.160156 C 1400.53125 271.570312 1412.226562 283.257812 1426.640625 283.257812 L 1930.140625 283.257812 C 1944.554688 283.257812 1956.246094 271.570312 1956.246094 257.160156 C 1956.246094 242.75 1944.554688 231.0625 1930.140625 231.0625 Z M 1930.140625 231.0625 " fill-opacity="1" fill-rule="nonzero"/></g><g clip-path="url(#id4)"><path fill="#23243d" d="M 1031.132812 230.3125 C 1035.410156 230.3125 1039.445312 231.355469 1043.007812 233.164062 C 1047.046875 218.863281 1060.183594 208.378906 1075.765625 208.378906 C 1078.542969 208.378906 1081.246094 208.726562 1083.839844 209.347656 C 1087.953125 188.949219 1105.984375 173.589844 1127.597656 173.589844 C 1146.429688 173.589844 1162.527344 185.257812 1169.085938 201.769531 C 1177.945312 191.90625 1190.808594 185.699219 1205.113281 185.699219 C 1207.523438 185.699219 1209.878906 185.878906 1212.183594 186.207031 C 1214.976562 156.222656 1240.207031 132.753906 1270.917969 132.753906 C 1290.007812 132.753906 1306.980469 141.832031 1317.777344 155.894531 C 1322.109375 154.613281 1326.695312 153.921875 1331.445312 153.921875 C 1352.910156 153.921875 1371.105469 167.890625 1377.445312 187.25 C 1381.355469 186.226562 1385.464844 185.679688 1389.6875 185.679688 C 1395.09375 185.679688 1400.28125 186.574219 1405.140625 188.21875 C 1413.308594 179.234375 1425.074219 173.589844 1438.171875 173.589844 C 1459.785156 173.589844 1477.816406 188.949219 1481.925781 209.347656 C 1484.523438 208.726562 1487.207031 208.378906 1490.003906 208.378906 C 1505.605469 208.378906 1518.738281 218.863281 1522.757812 233.164062 C 1526.320312 231.335938 1530.359375 230.3125 1534.632812 230.3125 C 1549.046875 230.3125 1560.742188 242 1560.742188 256.410156 C 1560.742188 270.820312 1549.046875 282.507812 1534.632812 282.507812 L 1031.132812 282.507812 C 1016.71875 282.507812 1005.027344 270.820312 1005.027344 256.410156 C 1005.027344 242 1016.71875 230.3125 1031.132812 230.3125 Z M 1031.132812 230.3125 " fill-opacity="1" fill-rule="nonzero"/></g><g clip-path="url(#id5)"><path fill="#23243d" d="M 645.257812 268.5625 C 649.535156 268.5625 653.570312 269.605469 657.132812 271.414062 C 661.171875 257.113281 674.308594 246.628906 689.890625 246.628906 C 692.667969 246.628906 695.371094 246.976562 697.964844 247.597656 C 702.074219 227.199219 720.109375 211.839844 741.71875 211.839844 C 760.554688 211.839844 776.652344 223.507812 783.210938 240.019531 C 792.070312 230.15625 804.933594 223.949219 819.238281 223.949219 C 821.648438 223.949219 824.003906 224.128906 826.308594 224.457031 C 829.101562 194.472656 854.332031 171.003906 885.042969 171.003906 C 904.132812 171.003906 921.105469 180.082031 931.902344 194.144531 C 936.234375 192.863281 940.816406 192.171875 945.566406 192.171875 C 967.035156 192.171875 985.230469 206.140625 991.570312 225.5 C 995.480469 224.476562 999.589844 223.929688 1003.808594 223.929688 C 1009.21875 223.929688 1014.40625 224.824219 1019.265625 226.46875 C 1027.433594 217.484375 1039.199219 211.839844 1052.296875 211.839844 C 1073.910156 211.839844 1091.941406 227.199219 1096.050781 247.597656 C 1098.644531 246.976562 1101.332031 246.628906 1104.125 246.628906 C 1119.730469 246.628906 1132.863281 257.113281 1136.882812 271.414062 C 1140.445312 269.585938 1144.484375 268.5625 1148.757812 268.5625 C 1163.171875 268.5625 1174.867188 280.25 1174.867188 294.660156 C 1174.867188 309.070312 1163.171875 320.757812 1148.757812 320.757812 L 645.257812 320.757812 C 630.84375 320.757812 619.152344 309.070312 619.152344 294.660156 C 619.152344 280.25 630.84375 268.5625 645.257812 268.5625 Z M 645.257812 268.5625 " fill-opacity="1" fill-rule="nonzero"/></g><g clip-path="url(#id6)"><path fill="#4481ab" d="M 934.175781 276.371094 C 929.902344 276.371094 925.863281 277.410156 922.300781 279.21875 C 918.265625 264.921875 905.128906 254.4375 889.546875 254.4375 C 886.769531 254.4375 884.066406 254.785156 881.46875 255.40625 C 877.359375 235.003906 859.328125 219.648438 837.714844 219.648438 C 818.878906 219.648438 802.785156 231.316406 796.226562 247.824219 C 787.367188 237.964844 774.503906 231.753906 760.199219 231.753906 C 757.789062 231.753906 755.429688 231.9375 753.128906 232.265625 C 750.332031 202.277344 725.105469 178.8125 694.394531 178.8125 C 675.300781 178.8125 658.328125 187.886719 647.53125 201.949219 C 643.203125 200.671875 638.617188 199.976562 633.867188 199.976562 C 612.402344 199.976562 594.203125 213.949219 587.867188 233.308594 C 583.957031 232.285156 579.84375 231.738281 575.625 231.738281 C 570.21875 231.738281 565.027344 232.632812 560.167969 234.273438 C 552.003906 225.289062 540.238281 219.648438 527.140625 219.648438 C 505.527344 219.648438 487.496094 235.003906 483.382812 255.40625 C 480.789062 254.785156 478.105469 254.4375 475.308594 254.4375 C 459.707031 254.4375 446.570312 264.921875 442.550781 279.21875 C 438.988281 277.394531 434.953125 276.371094 430.675781 276.371094 C 416.261719 276.371094 404.570312 288.058594 404.570312 302.46875 C 404.570312 316.878906 416.261719 328.566406 430.675781 328.566406 L 934.175781 328.566406 C 948.589844 328.566406 960.285156 316.878906 960.285156 302.46875 C 960.285156 288.058594 948.589844 276.371094 934.175781 276.371094 Z M 934.175781 276.371094 " fill-opacity="1" fill-rule="nonzero"/></g><g clip-path="url(#id7)"><path fill="#4481ab" d="M 35.171875 275.621094 C 39.445312 275.621094 43.484375 276.660156 47.046875 278.46875 C 51.085938 264.171875 64.21875 253.6875 79.804688 253.6875 C 82.582031 253.6875 85.285156 254.035156 87.878906 254.65625 C 91.988281 234.253906 110.019531 218.898438 131.632812 218.898438 C 150.46875 218.898438 166.5625 230.566406 173.121094 247.074219 C 181.984375 237.214844 194.84375 231.003906 209.148438 231.003906 C 211.5625 231.003906 213.917969 231.1875 216.21875 231.515625 C 219.015625 201.527344 244.246094 178.0625 274.957031 178.0625 C 294.046875 178.0625 311.019531 187.136719 321.816406 201.199219 C 326.144531 199.921875 330.730469 199.226562 335.480469 199.226562 C 356.949219 199.226562 375.144531 213.199219 381.484375 232.558594 C 385.394531 231.535156 389.503906 230.988281 393.722656 230.988281 C 399.132812 230.988281 404.320312 231.882812 409.179688 233.523438 C 417.34375 224.539062 429.109375 218.898438 442.210938 218.898438 C 463.824219 218.898438 481.855469 234.253906 485.964844 254.65625 C 488.558594 254.035156 491.246094 253.6875 494.039062 253.6875 C 509.640625 253.6875 522.777344 264.171875 526.796875 278.46875 C 530.359375 276.644531 534.394531 275.621094 538.671875 275.621094 C 553.085938 275.621094 564.777344 287.308594 564.777344 301.71875 C 564.777344 316.128906 553.085938 327.816406 538.671875 327.816406 L 35.171875 327.816406 C 20.757812 327.816406 9.066406 316.128906 9.066406 301.71875 C 9.066406 287.308594 20.757812 275.621094 35.171875 275.621094 Z M 35.171875 275.621094 " fill-opacity="1" fill-rule="nonzero"/></g><g clip-path="url(#id8)"><path fill="#4481ab" d="M -350.703125 313.871094 C -346.429688 313.871094 -342.390625 314.910156 -338.828125 316.71875 C -334.792969 302.421875 -321.65625 291.9375 -306.074219 291.9375 C -303.296875 291.9375 -300.589844 292.285156 -297.996094 292.90625 C -293.886719 272.503906 -275.855469 257.148438 -254.242188 257.148438 C -235.40625 257.148438 -219.3125 268.816406 -212.753906 285.324219 C -203.890625 275.464844 -191.03125 269.253906 -176.726562 269.253906 C -174.316406 269.253906 -171.957031 269.4375 -169.65625 269.765625 C -166.859375 239.777344 -141.632812 216.3125 -110.921875 216.3125 C -91.828125 216.3125 -74.855469 225.386719 -64.058594 239.449219 C -59.730469 238.171875 -55.144531 237.476562 -50.394531 237.476562 C -28.929688 237.476562 -10.730469 251.449219 -4.390625 270.808594 C -0.484375 269.785156 3.628906 269.238281 7.847656 269.238281 C 13.253906 269.238281 18.445312 270.132812 23.304688 271.773438 C 31.46875 262.789062 43.234375 257.148438 56.335938 257.148438 C 77.945312 257.148438 95.980469 272.503906 100.089844 292.90625 C 102.683594 292.285156 105.367188 291.9375 108.164062 291.9375 C 123.765625 291.9375 136.902344 302.421875 140.921875 316.71875 C 144.484375 314.894531 148.519531 313.871094 152.796875 313.871094 C 167.210938 313.871094 178.902344 325.558594 178.902344 339.96875 C 178.902344 354.378906 167.210938 366.066406 152.796875 366.066406 L -350.703125 366.066406 C -365.117188 366.066406 -376.8125 354.378906 -376.8125 339.96875 C -376.8125 325.558594 -365.117188 313.871094 -350.703125 313.871094 Z M -350.703125 313.871094 " fill-opacity="1" fill-rule="nonzero"/></g><g clip-path="url(#id9)"><path fill="#57a4d9" d="M 269.21875 324.863281 C 264.941406 324.863281 260.90625 325.90625 257.34375 327.710938 C 253.304688 313.414062 240.167969 302.929688 224.585938 302.929688 C 221.808594 302.929688 219.105469 303.277344 216.511719 303.898438 C 212.398438 283.5 194.367188 268.140625 172.753906 268.140625 C 153.917969 268.140625 137.824219 279.808594 131.265625 296.320312 C 122.40625 286.457031 109.542969 280.246094 95.238281 280.246094 C 92.828125 280.246094 90.46875 280.429688 88.167969 280.757812 C 85.375 250.773438 60.144531 227.304688 29.433594 227.304688 C 10.34375 227.304688 -6.628906 236.378906 -17.425781 250.441406 C -21.757812 249.164062 -26.34375 248.46875 -31.09375 248.46875 C -52.558594 248.46875 -70.753906 262.441406 -77.09375 281.800781 C -81.003906 280.777344 -85.113281 280.230469 -89.335938 280.230469 C -94.742188 280.230469 -99.929688 281.125 -104.789062 282.769531 C -112.957031 273.78125 -124.722656 268.140625 -137.820312 268.140625 C -159.433594 268.140625 -177.464844 283.5 -181.578125 303.898438 C -184.171875 303.277344 -186.855469 302.929688 -189.652344 302.929688 C -205.253906 302.929688 -218.390625 313.414062 -222.40625 327.710938 C -225.96875 325.886719 -230.007812 324.863281 -234.28125 324.863281 C -248.699219 324.863281 -260.390625 336.550781 -260.390625 350.960938 C -260.390625 365.371094 -248.699219 377.058594 -234.28125 377.058594 L 269.21875 377.058594 C 283.632812 377.058594 295.324219 365.371094 295.324219 350.960938 C 295.324219 336.550781 283.632812 324.863281 269.21875 324.863281 Z M 269.21875 324.863281 " fill-opacity="1" fill-rule="nonzero"/></g><g clip-path="url(#id10)"><path fill="#57a4d9" d="M 631.621094 324.863281 C 627.34375 324.863281 623.308594 325.90625 619.746094 327.710938 C 615.707031 313.414062 602.570312 302.929688 586.988281 302.929688 C 584.210938 302.929688 581.507812 303.277344 578.914062 303.898438 C 574.804688 283.5 556.769531 268.140625 535.160156 268.140625 C 516.324219 268.140625 500.226562 279.808594 493.667969 296.320312 C 484.808594 286.457031 471.945312 280.246094 457.640625 280.246094 C 455.230469 280.246094 452.875 280.429688 450.570312 280.757812 C 447.777344 250.773438 422.546875 227.304688 391.835938 227.304688 C 372.746094 227.304688 355.773438 236.378906 344.976562 250.441406 C 340.644531 249.164062 336.0625 248.46875 331.3125 248.46875 C 309.84375 248.46875 291.648438 262.441406 285.308594 281.800781 C 281.398438 280.777344 277.289062 280.230469 273.070312 280.230469 C 267.660156 280.230469 262.472656 281.125 257.613281 282.769531 C 249.445312 273.78125 237.679688 268.140625 224.582031 268.140625 C 202.96875 268.140625 184.9375 283.5 180.828125 303.898438 C 178.234375 303.277344 175.546875 302.929688 172.753906 302.929688 C 157.148438 302.929688 144.015625 313.414062 139.996094 327.710938 C 136.433594 325.886719 132.394531 324.863281 128.121094 324.863281 C 113.707031 324.863281 102.011719 336.550781 102.011719 350.960938 C 102.011719 365.371094 113.707031 377.058594 128.121094 377.058594 L 631.621094 377.058594 C 646.035156 377.058594 657.726562 365.371094 657.726562 350.960938 C 657.726562 336.550781 646.035156 324.863281 631.621094 324.863281 Z M 631.621094 324.863281 " fill-opacity="1" fill-rule="nonzero"/></g><g clip-path="url(#id11)"><path fill="#57a4d9" d="M 1719.40625 312.480469 C 1715.128906 312.480469 1711.09375 313.519531 1707.53125 315.328125 C 1703.492188 301.027344 1690.355469 290.546875 1674.773438 290.546875 C 1671.996094 290.546875 1669.292969 290.894531 1666.699219 291.515625 C 1662.585938 271.113281 1644.554688 255.757812 1622.941406 255.757812 C 1604.105469 255.757812 1588.011719 267.425781 1581.453125 283.933594 C 1572.59375 274.074219 1559.730469 267.863281 1545.425781 267.863281 C 1543.015625 267.863281 1540.660156 268.046875 1538.355469 268.375 C 1535.5625 238.386719 1510.332031 214.921875 1479.621094 214.921875 C 1460.53125 214.921875 1443.558594 223.996094 1432.761719 238.058594 C 1428.429688 236.78125 1423.84375 236.085938 1419.09375 236.085938 C 1397.628906 236.085938 1379.433594 250.058594 1373.09375 269.417969 C 1369.183594 268.394531 1365.074219 267.847656 1360.851562 267.847656 C 1355.445312 267.847656 1350.257812 268.742188 1345.398438 270.382812 C 1337.230469 261.398438 1325.464844 255.757812 1312.367188 255.757812 C 1290.753906 255.757812 1272.722656 271.113281 1268.609375 291.515625 C 1266.015625 290.894531 1263.332031 290.546875 1260.535156 290.546875 C 1244.933594 290.546875 1231.796875 301.027344 1227.78125 315.328125 C 1224.21875 313.503906 1220.179688 312.480469 1215.90625 312.480469 C 1201.488281 312.480469 1189.796875 324.167969 1189.796875 338.578125 C 1189.796875 352.988281 1201.488281 364.675781 1215.90625 364.675781 L 1719.40625 364.675781 C 1733.820312 364.675781 1745.511719 352.988281 1745.511719 338.578125 C 1745.511719 324.167969 1733.820312 312.480469 1719.40625 312.480469 Z M 1719.40625 312.480469 " fill-opacity="1" fill-rule="nonzero"/></g><g clip-path="url(#id12)"><path fill="#57a4d9" d="M 1324.023438 311.730469 C 1319.75 311.730469 1315.710938 312.769531 1312.148438 314.578125 C 1308.113281 300.277344 1294.976562 289.796875 1279.394531 289.796875 C 1276.617188 289.796875 1273.914062 290.144531 1271.316406 290.765625 C 1267.207031 270.363281 1249.175781 255.007812 1227.5625 255.007812 C 1208.726562 255.007812 1192.632812 266.675781 1186.074219 283.183594 C 1177.214844 273.324219 1164.351562 267.113281 1150.046875 267.113281 C 1147.636719 267.113281 1145.277344 267.296875 1142.976562 267.625 C 1140.183594 237.636719 1114.953125 214.171875 1084.242188 214.171875 C 1065.148438 214.171875 1048.179688 223.246094 1037.378906 237.308594 C 1033.050781 236.03125 1028.464844 235.335938 1023.714844 235.335938 C 1002.25 235.335938 984.054688 249.308594 977.714844 268.667969 C 973.804688 267.644531 969.691406 267.097656 965.472656 267.097656 C 960.066406 267.097656 954.875 267.992188 950.015625 269.632812 C 941.851562 260.648438 930.085938 255.007812 916.988281 255.007812 C 895.375 255.007812 877.34375 270.363281 873.230469 290.765625 C 870.636719 290.144531 867.953125 289.796875 865.15625 289.796875 C 849.554688 289.796875 836.417969 300.277344 832.398438 314.578125 C 828.835938 312.753906 824.800781 311.730469 820.523438 311.730469 C 806.109375 311.730469 794.417969 323.417969 794.417969 337.828125 C 794.417969 352.238281 806.109375 363.925781 820.523438 363.925781 L 1324.023438 363.925781 C 1338.4375 363.925781 1350.132812 352.238281 1350.132812 337.828125 C 1350.132812 323.417969 1338.4375 311.730469 1324.023438 311.730469 Z M 1324.023438 311.730469 " fill-opacity="1" fill-rule="nonzero"/></g><g clip-path="url(#id13)"><path fill="#57a4d9" d="M 938.148438 349.980469 C 933.875 349.980469 929.835938 351.019531 926.273438 352.828125 C 922.238281 338.527344 909.101562 328.046875 893.515625 328.046875 C 890.742188 328.046875 888.035156 328.394531 885.441406 329.015625 C 881.332031 308.613281 863.300781 293.257812 841.6875 293.257812 C 822.851562 293.257812 806.757812 304.925781 800.199219 321.433594 C 791.335938 311.574219 778.476562 305.363281 764.171875 305.363281 C 761.761719 305.363281 759.402344 305.546875 757.101562 305.875 C 754.304688 275.886719 729.078125 252.421875 698.367188 252.421875 C 679.273438 252.421875 662.300781 261.496094 651.503906 275.558594 C 647.175781 274.28125 642.589844 273.585938 637.839844 273.585938 C 616.375 273.585938 598.175781 287.558594 591.835938 306.917969 C 587.929688 305.894531 583.816406 305.347656 579.597656 305.347656 C 574.191406 305.347656 569 306.242188 564.140625 307.882812 C 555.976562 298.898438 544.210938 293.257812 531.109375 293.257812 C 509.5 293.257812 491.464844 308.613281 487.355469 329.015625 C 484.761719 328.394531 482.078125 328.046875 479.28125 328.046875 C 463.679688 328.046875 450.542969 338.527344 446.523438 352.828125 C 442.960938 351.003906 438.925781 349.980469 434.648438 349.980469 C 420.234375 349.980469 408.542969 361.667969 408.542969 376.078125 C 408.542969 390.488281 420.234375 402.175781 434.648438 402.175781 L 938.148438 402.175781 C 952.5625 402.175781 964.257812 390.488281 964.257812 376.078125 C 964.257812 361.667969 952.5625 349.980469 938.148438 349.980469 Z M 938.148438 349.980469 " fill-opacity="1" fill-rule="nonzero"/></g><g clip-path="url(#id14)"><path fill="#cceaff" d="M 96.804688 376.078125 C 92.527344 376.078125 88.492188 377.117188 84.929688 378.925781 C 80.890625 364.628906 67.753906 354.144531 52.171875 354.144531 C 49.394531 354.144531 46.691406 354.492188 44.097656 355.113281 C 39.984375 334.710938 21.953125 319.355469 0.339844 319.355469 C -18.496094 319.355469 -34.589844 331.023438 -41.148438 347.53125 C -50.007812 337.671875 -62.871094 331.460938 -77.175781 331.460938 C -79.585938 331.460938 -81.945312 331.644531 -84.246094 331.972656 C -87.039062 301.984375 -112.269531 278.519531 -142.980469 278.519531 C -162.070312 278.519531 -179.042969 287.59375 -189.839844 301.65625 C -194.171875 300.378906 -198.757812 299.683594 -203.507812 299.683594 C -224.972656 299.683594 -243.167969 313.65625 -249.507812 333.015625 C -253.417969 331.992188 -257.527344 331.445312 -261.75 331.445312 C -267.15625 331.445312 -272.34375 332.339844 -277.203125 333.980469 C -285.371094 324.996094 -297.136719 319.355469 -310.234375 319.355469 C -331.847656 319.355469 -349.878906 334.710938 -353.992188 355.113281 C -356.585938 354.492188 -359.269531 354.144531 -362.066406 354.144531 C -377.667969 354.144531 -390.804688 364.628906 -394.820312 378.925781 C -398.382812 377.101562 -402.421875 376.078125 -406.695312 376.078125 C -421.113281 376.078125 -432.804688 387.765625 -432.804688 402.175781 C -432.804688 416.585938 -421.113281 428.273438 -406.695312 428.273438 L 96.804688 428.273438 C 111.21875 428.273438 122.910156 416.585938 122.910156 402.175781 C 122.910156 387.765625 111.21875 376.078125 96.804688 376.078125 Z M 96.804688 376.078125 " fill-opacity="1" fill-rule="nonzero"/></g><g clip-path="url(#id15)"><path fill="#cceaff" d="M 459.207031 376.078125 C 454.929688 376.078125 450.894531 377.117188 447.332031 378.925781 C 443.292969 364.628906 430.15625 354.144531 414.574219 354.144531 C 411.796875 354.144531 409.09375 354.492188 406.5 355.113281 C 402.390625 334.710938 384.355469 319.355469 362.746094 319.355469 C 343.910156 319.355469 327.8125 331.023438 321.253906 347.53125 C 312.394531 337.671875 299.53125 331.460938 285.226562 331.460938 C 282.816406 331.460938 280.460938 331.644531 278.15625 331.972656 C 275.363281 301.984375 250.132812 278.519531 219.421875 278.519531 C 200.332031 278.519531 183.359375 287.59375 172.5625 301.65625 C 168.230469 300.378906 163.648438 299.683594 158.898438 299.683594 C 137.429688 299.683594 119.234375 313.65625 112.894531 333.015625 C 108.984375 331.992188 104.875 331.445312 100.65625 331.445312 C 95.246094 331.445312 90.058594 332.339844 85.199219 333.980469 C 77.03125 324.996094 65.265625 319.355469 52.167969 319.355469 C 30.554688 319.355469 12.523438 334.710938 8.414062 355.113281 C 5.820312 354.492188 3.132812 354.144531 0.339844 354.144531 C -15.265625 354.144531 -28.398438 364.628906 -32.417969 378.925781 C -35.980469 377.101562 -40.019531 376.078125 -44.292969 376.078125 C -58.707031 376.078125 -70.402344 387.765625 -70.402344 402.175781 C -70.402344 416.585938 -58.707031 428.273438 -44.292969 428.273438 L 459.207031 428.273438 C 473.621094 428.273438 485.3125 416.585938 485.3125 402.175781 C 485.3125 387.765625 473.621094 376.078125 459.207031 376.078125 Z M 459.207031 376.078125 " fill-opacity="1" fill-rule="nonzero"/></g><g clip-path="url(#id16)"><path fill="#cceaff" d="M 1546.992188 363.695312 C 1542.714844 363.695312 1538.679688 364.734375 1535.117188 366.542969 C 1531.078125 352.242188 1517.941406 341.761719 1502.359375 341.761719 C 1499.582031 341.761719 1496.878906 342.109375 1494.285156 342.730469 C 1490.171875 322.328125 1472.140625 306.96875 1450.527344 306.96875 C 1431.691406 306.96875 1415.597656 318.640625 1409.039062 335.148438 C 1400.179688 325.289062 1387.316406 319.078125 1373.011719 319.078125 C 1370.601562 319.078125 1368.246094 319.261719 1365.941406 319.589844 C 1363.148438 289.601562 1337.917969 266.136719 1307.207031 266.136719 C 1288.117188 266.136719 1271.144531 275.210938 1260.347656 289.273438 C 1256.015625 287.996094 1251.429688 287.300781 1246.679688 287.300781 C 1225.214844 287.300781 1207.019531 301.273438 1200.679688 320.628906 C 1196.769531 319.609375 1192.660156 319.058594 1188.4375 319.058594 C 1183.03125 319.058594 1177.84375 319.953125 1172.984375 321.597656 C 1164.816406 312.613281 1153.050781 306.96875 1139.953125 306.96875 C 1118.339844 306.96875 1100.308594 322.328125 1096.195312 342.730469 C 1093.601562 342.109375 1090.917969 341.761719 1088.121094 341.761719 C 1072.519531 341.761719 1059.382812 352.242188 1055.367188 366.542969 C 1051.804688 364.71875 1047.765625 363.695312 1043.492188 363.695312 C 1029.074219 363.695312 1017.382812 375.382812 1017.382812 389.792969 C 1017.382812 404.199219 1029.074219 415.890625 1043.492188 415.890625 L 1546.992188 415.890625 C 1561.40625 415.890625 1573.097656 404.199219 1573.097656 389.792969 C 1573.097656 375.382812 1561.40625 363.695312 1546.992188 363.695312 Z M 1546.992188 363.695312 " fill-opacity="1" fill-rule="nonzero"/></g><g clip-path="url(#id17)"><path fill="#cceaff" d="M 1151.609375 362.945312 C 1147.335938 362.945312 1143.296875 363.984375 1139.734375 365.792969 C 1135.699219 351.492188 1122.5625 341.011719 1106.980469 341.011719 C 1104.203125 341.011719 1101.5 341.359375 1098.902344 341.980469 C 1094.792969 321.578125 1076.761719 306.21875 1055.148438 306.21875 C 1036.3125 306.21875 1020.21875 317.890625 1013.660156 334.398438 C 1004.800781 324.539062 991.9375 318.328125 977.632812 318.328125 C 975.222656 318.328125 972.863281 318.511719 970.5625 318.839844 C 967.769531 288.851562 942.539062 265.386719 911.828125 265.386719 C 892.734375 265.386719 875.765625 274.460938 864.964844 288.523438 C 860.636719 287.246094 856.050781 286.550781 851.300781 286.550781 C 829.835938 286.550781 811.640625 300.523438 805.300781 319.878906 C 801.390625 318.859375 797.277344 318.308594 793.058594 318.308594 C 787.652344 318.308594 782.460938 319.203125 777.601562 320.847656 C 769.4375 311.863281 757.671875 306.21875 744.574219 306.21875 C 722.960938 306.21875 704.929688 321.578125 700.816406 341.980469 C 698.222656 341.359375 695.539062 341.011719 692.742188 341.011719 C 677.140625 341.011719 664.003906 351.492188 659.984375 365.792969 C 656.421875 363.96875 652.386719 362.945312 648.109375 362.945312 C 633.695312 362.945312 622.003906 374.632812 622.003906 389.042969 C 622.003906 403.449219 633.695312 415.140625 648.109375 415.140625 L 1151.609375 415.140625 C 1166.023438 415.140625 1177.71875 403.449219 1177.71875 389.042969 C 1177.71875 374.632812 1166.023438 362.945312 1151.609375 362.945312 Z M 1151.609375 362.945312 " fill-opacity="1" fill-rule="nonzero"/></g><g clip-path="url(#id18)"><path fill="#cceaff" d="M 765.734375 401.195312 C 761.460938 401.195312 757.421875 402.234375 753.859375 404.042969 C 749.824219 389.742188 736.6875 379.261719 721.105469 379.261719 C 718.328125 379.261719 715.621094 379.609375 713.027344 380.230469 C 708.917969 359.828125 690.886719 344.46875 669.273438 344.46875 C 650.4375 344.46875 634.34375 356.140625 627.785156 372.648438 C 618.921875 362.789062 606.0625 356.578125 591.757812 356.578125 C 589.347656 356.578125 586.988281 356.761719 584.6875 357.089844 C 581.890625 327.101562 556.664062 303.636719 525.953125 303.636719 C 506.859375 303.636719 489.886719 312.710938 479.089844 326.773438 C 474.761719 325.496094 470.175781 324.800781 465.425781 324.800781 C 443.960938 324.800781 425.761719 338.773438 419.421875 358.128906 C 415.515625 357.109375 411.402344 356.558594 407.183594 356.558594 C 401.777344 356.558594 396.585938 357.453125 391.726562 359.097656 C 383.5625 350.113281 371.796875 344.46875 358.695312 344.46875 C 337.085938 344.46875 319.050781 359.828125 314.941406 380.230469 C 312.347656 379.609375 309.664062 379.261719 306.867188 379.261719 C 291.265625 379.261719 278.128906 389.742188 274.109375 404.042969 C 270.546875 402.21875 266.511719 401.195312 262.234375 401.195312 C 247.820312 401.195312 236.128906 412.882812 236.128906 427.292969 C 236.128906 441.699219 247.820312 453.390625 262.234375 453.390625 L 765.734375 453.390625 C 780.148438 453.390625 791.84375 441.699219 791.84375 427.292969 C 791.84375 412.882812 780.148438 401.195312 765.734375 401.195312 Z M 765.734375 401.195312 " fill-opacity="1" fill-rule="nonzero"/></g></svg>